<svg width="24" height="24" viewBox="0 0 24 24" fill="none" xmlns="http://www.w3.org/2000/svg">
<path d="M4.80348 15.5194C4.99729 15.4822 5.19771 15.5035 5.37965 15.58C5.50238 15.6276 5.61464 15.6989 5.70973 15.7899C5.79806 15.8871 5.86905 15.9988 5.91969 16.12C5.97258 16.2397 5.99977 16.369 5.99977 16.4999C5.99976 16.6307 5.97258 16.7601 5.91969 16.8798C5.86905 17.0009 5.79804 17.1127 5.70973 17.2099C5.61633 17.3025 5.50532 17.3759 5.38356 17.4257C5.26182 17.4753 5.13126 17.5007 4.99977 17.4999C4.86984 17.5015 4.74073 17.4774 4.61989 17.4296C4.50046 17.3716 4.38924 17.2978 4.28981 17.2099C4.20151 17.1127 4.13048 17.0009 4.07985 16.8798C4.02698 16.7601 3.99979 16.6307 3.99977 16.4999C3.99977 16.3691 4.02701 16.2396 4.07985 16.12C4.13046 15.9989 4.20155 15.8871 4.28981 15.7899C4.43043 15.6512 4.60949 15.5568 4.80348 15.5194ZM18.9998 15.7499C19.1987 15.7499 19.3894 15.829 19.53 15.9696C19.6707 16.1103 19.7498 16.301 19.7498 16.4999C19.7497 16.6988 19.6707 16.8895 19.53 17.0302C19.3894 17.1707 19.1986 17.2499 18.9998 17.2499H7.99977C7.80095 17.2498 7.61009 17.1708 7.4695 17.0302C7.32891 16.8895 7.2498 16.6987 7.24977 16.4999C7.24977 16.3011 7.32896 16.1103 7.4695 15.9696C7.61009 15.829 7.80095 15.75 7.99977 15.7499H18.9998ZM5.19997 10.9999L5.37965 11.0595L5.56032 11.1493C5.61258 11.1861 5.66231 11.2265 5.70973 11.2694C5.8972 11.4661 6.00119 11.7282 5.99977 11.9999C5.99975 12.2651 5.89432 12.5194 5.7068 12.7069C5.51928 12.8944 5.26491 12.9999 4.99977 12.9999C4.86917 12.9983 4.74004 12.971 4.61989 12.9198C4.49874 12.8692 4.38699 12.7982 4.28981 12.7099C4.19716 12.6164 4.12374 12.5055 4.07399 12.3837C4.02427 12.2619 3.99902 12.1314 3.99977 11.9999C4.00345 11.7352 4.10718 11.4815 4.28981 11.2899C4.38697 11.2016 4.49877 11.1306 4.61989 11.08C4.80091 10.996 5.00299 10.9681 5.19997 10.9999ZM18.9998 11.2499C19.1987 11.2499 19.3894 11.329 19.53 11.4696C19.6707 11.6103 19.7498 11.801 19.7498 11.9999C19.7497 12.1988 19.6707 12.3895 19.53 12.5302C19.3894 12.6707 19.1986 12.7499 18.9998 12.7499H7.99977C7.80095 12.7498 7.61009 12.6708 7.4695 12.5302C7.32891 12.3895 7.2498 12.1987 7.24977 11.9999C7.24977 11.8011 7.32896 11.6103 7.4695 11.4696C7.61009 11.329 7.80095 11.25 7.99977 11.2499H18.9998ZM4.61989 6.57997C4.86327 6.47998 5.13625 6.48005 5.37965 6.57997C5.50238 6.62755 5.61464 6.69892 5.70973 6.78993C5.89247 6.98157 5.99609 7.23513 5.99977 7.49989C6.00052 7.63146 5.9753 7.76188 5.92555 7.88368C5.87579 8.00549 5.8024 8.11643 5.70973 8.20985C5.6103 8.29778 5.49908 8.37163 5.37965 8.42958C5.25881 8.47733 5.1297 8.50148 4.99977 8.49989C4.86984 8.50145 4.74073 8.47737 4.61989 8.42958C4.50046 8.37161 4.38924 8.29781 4.28981 8.20985C4.19716 8.11643 4.12374 8.00549 4.07399 7.88368C4.02427 7.7619 3.99903 7.63143 3.99977 7.49989C4.00345 7.2352 4.10718 6.98155 4.28981 6.78993C4.38364 6.69737 4.49631 6.62579 4.61989 6.57997ZM18.9998 6.74989C19.1987 6.74989 19.3894 6.829 19.53 6.96962C19.6707 7.11027 19.7498 7.30098 19.7498 7.49989C19.7497 7.69876 19.6707 7.88954 19.53 8.03017C19.3894 8.1707 19.1986 8.24989 18.9998 8.24989H7.99977C7.80095 8.24983 7.61009 8.17076 7.4695 8.03017C7.32891 7.88955 7.2498 7.69873 7.24977 7.49989C7.24977 7.30107 7.32896 7.11025 7.4695 6.96962C7.61009 6.82902 7.80095 6.74996 7.99977 6.74989H18.9998Z" fill="#475467"/>
</svg>
