<svg width="162" height="28" viewBox="0 0 162 28" fill="none" xmlns="http://www.w3.org/2000/svg">
<path d="M15.8389 27.2897L0.786369 12.7825L4.033 14.4057H14.068V21.4057L15.8389 27.2897Z" fill="url(#paint0_linear_2009_1400)"/>
<path d="M0 10.3478V0H13.872C21.0539 0 24.7399 4.66667 26.2682 7.4058C28.1927 10.8551 28.2829 15.8261 27.6455 17.9565C25.7637 24.2464 21.3491 28 17.9057 28C15.4461 28 14.0359 25.3623 14.0687 24.0435V21.4058C19.5782 21.4058 20.8899 16.7391 20.8571 14.4058V13.7971C20.8571 10.0435 17.1186 7.4058 14.659 7.4058H7.18194V14.4058H3.93531C1.81024 14.4058 0 12.5797 0 10.3478Z" fill="white"/>
<path d="M47.714 8.7C50.248 8.7 52.474 10.268 52.474 13.6C52.474 16.932 50.248 18.5 47.714 18.5H40.602V8.7H47.714ZM46.762 16.386C48.666 16.386 49.954 15.98 49.954 13.6C49.954 11.22 48.666 10.814 46.762 10.814H43.122V16.386H46.762ZM53.4536 7.3H55.8476V9.386H53.4536V7.3ZM53.4536 10.254H55.8476V18.5H53.4536V10.254ZM65.7749 10.254H68.1829V17.184C68.1829 20.544 65.9289 22 62.8069 22C60.4129 22 58.4389 21.552 57.6409 21.342V19.41C58.6069 19.592 60.4549 19.998 62.2749 19.998C64.7529 19.998 65.6769 19.046 65.7749 16.932C64.9349 17.856 63.5489 18.402 61.6029 18.402C58.7749 18.402 56.7589 17.17 56.7589 14.258C56.7589 11.346 58.7749 10.114 61.6029 10.114C63.5629 10.114 64.9489 10.66 65.7749 11.584V10.254ZM62.4709 16.4C64.7249 16.4 65.7749 15.77 65.7749 14.258C65.7749 12.746 64.7249 12.116 62.4709 12.116C60.2169 12.116 59.1529 12.746 59.1529 14.258C59.1529 15.77 60.2169 16.4 62.4709 16.4ZM69.2993 7.3H71.6933V9.386H69.2993V7.3ZM69.2993 10.254H71.6933V18.5H69.2993V10.254ZM81.0065 12.256H77.1005V14.636C77.1005 16.232 77.4085 16.638 78.8645 16.638C79.6205 16.638 80.0405 16.638 81.0065 16.498V18.43C80.2085 18.57 79.2985 18.64 78.1925 18.64C76.0645 18.64 74.6925 17.842 74.6925 16.022V12.256H72.5225V10.254H74.6925V8.546L77.1005 7.86V10.254H81.0065V12.256ZM87.5184 10.114C90.9624 10.114 92.9224 11.22 92.9504 14.342V18.5H90.5424V17.478C89.0864 18.192 87.4764 18.64 85.5304 18.64C83.2204 18.64 81.7784 17.898 81.7784 16.036C81.7784 13.894 84.1304 13.222 86.7484 13.222C88.1624 13.222 89.4644 13.446 90.5424 13.81C90.5424 12.242 88.5264 12.116 87.4064 12.116C86.3284 12.116 85.0124 12.214 83.3184 12.718L82.4644 10.968C84.1444 10.422 85.7964 10.114 87.5184 10.114ZM90.5424 15.938V15.294C89.7024 15.028 88.5684 14.79 87.0424 14.79C85.2504 14.79 84.1724 15.098 84.1724 15.938C84.1724 16.806 84.9704 16.876 86.2164 16.876C87.5184 16.876 89.3104 16.47 90.5424 15.938ZM94.0727 7.3H96.4667V18.5H94.0727V7.3ZM110.087 18.64C105.775 18.64 103.927 16.848 103.927 13.586C103.927 10.338 105.775 8.56 110.087 8.56C114.385 8.56 116.247 10.352 116.247 13.586C116.247 16.834 114.385 18.64 110.087 18.64ZM110.087 16.526C112.705 16.526 113.727 15.588 113.727 13.586C113.727 11.598 112.719 10.674 110.087 10.674C107.455 10.674 106.447 11.584 106.447 13.586C106.447 15.602 107.469 16.526 110.087 16.526ZM123.189 8.924C121.817 8.924 121.467 9.218 121.425 10.254H124.911V12.256H121.425V18.5H119.017V12.256H116.847V10.254H119.017V9.638C119.017 7.958 120.025 7.16 122.433 7.16C123.259 7.16 123.693 7.16 124.911 7.3V8.994C124.365 8.952 123.805 8.924 123.189 8.924ZM131.939 8.924C130.567 8.924 130.217 9.218 130.175 10.254H133.661V12.256H130.175V18.5H127.767V12.256H125.597V10.254H127.767V9.638C127.767 7.958 128.775 7.16 131.183 7.16C132.009 7.16 132.443 7.16 133.661 7.3V8.994C133.115 8.952 132.555 8.924 131.939 8.924ZM134.569 7.3H136.963V9.386H134.569V7.3ZM134.569 10.254H136.963V18.5H134.569V10.254ZM137.874 14.384C137.874 11.346 140.17 10.114 143.586 10.114C146.666 10.114 148.836 11.122 149.228 13.544H146.778C146.456 12.48 145.322 12.116 143.586 12.116C141.528 12.116 140.268 12.662 140.268 14.384C140.268 16.092 141.528 16.638 143.586 16.638C145.322 16.638 146.456 16.274 146.778 15.21H149.228C148.836 17.632 146.666 18.64 143.586 18.64C140.17 18.64 137.874 17.408 137.874 14.384ZM155.491 16.694C157.143 16.694 158.151 16.386 158.753 15.546H161.133C160.587 17.646 158.543 18.64 155.491 18.64C152.355 18.64 149.919 17.408 149.919 14.384C149.919 11.346 152.285 10.114 155.631 10.114C158.767 10.114 161.273 11.192 161.273 14.944H152.369C152.635 16.26 153.895 16.694 155.491 16.694ZM155.617 11.934C153.979 11.934 152.831 12.256 152.453 13.418H158.711C158.305 12.256 157.129 11.934 155.617 11.934Z" fill="white"/>
<defs>
<linearGradient id="paint0_linear_2009_1400" x1="13.3326" y1="15.1666" x2="8.83259" y2="20.4999" gradientUnits="userSpaceOnUse">
<stop stop-color="#33FEEB"/>
<stop offset="0.800347" stop-color="#01CCB9"/>
<stop offset="1" stop-color="#15E0CD"/>
</linearGradient>
</defs>
</svg>
