<svg width="127" height="48" viewBox="0 0 127 48" fill="none" xmlns="http://www.w3.org/2000/svg">
<g filter="url(#filter0_ii_1_6481)">
<path fill-rule="evenodd" clip-rule="evenodd" d="M3 5.85714C3 3.17462 5.25488 1 8.03642 1H33.2185C36 1 38.2549 3.17462 38.2549 5.85714V30.1429C38.2549 32.8254 36 35 33.2185 35H8.03641C5.25488 35 3 32.8254 3 30.1429V5.85714Z" fill="#2E90FA"/>
</g>
<g filter="url(#filter1_d_1_6481)">
<path d="M9.38232 10.9067V29.7242H14.5665V18.7718H14.719L19.0645 29.5771H22.1903L26.5359 18.8453H26.6883V29.7242H31.8725V10.9067H25.2779L20.7418 21.565H20.5131L15.9769 10.9067H9.38232Z" fill="white"/>
<path d="M20.625 12.7444C22.4777 12.7444 23.9795 11.2963 23.9795 9.51012C23.9795 7.7239 22.4777 6.27588 20.625 6.27588C18.7724 6.27588 17.2706 7.7239 17.2706 9.51012C17.2706 11.2963 18.7724 12.7444 20.625 12.7444Z" fill="white"/>
</g>
<path d="M126.117 10.1167H119.673V13.9036C119.673 16.443 120.181 17.089 122.583 17.089C123.831 17.089 124.523 17.089 126.117 16.8663V19.9403C124.801 20.1631 123.299 20.2745 121.475 20.2745C117.964 20.2745 115.7 19.0048 115.7 16.1089V10.1167H112.12V6.93124H115.7V4.21359L119.673 3.12207V6.93124H126.117V10.1167Z" fill="#2E90FA"/>
<path d="M102.298 17.1781C105.023 17.1781 106.686 16.6881 107.679 15.3515H111.606C110.705 18.6929 107.333 20.2745 102.298 20.2745C97.1236 20.2745 93.1045 18.3142 93.1045 13.5026C93.1045 8.66876 97.0081 6.70848 102.529 6.70848C107.702 6.70848 111.837 8.42373 111.837 14.3937H97.1467C97.5855 16.4876 99.6644 17.1781 102.298 17.1781ZM102.505 9.60435C99.803 9.60435 97.9089 10.1167 97.2853 11.9656H107.61C106.94 10.1167 105 9.60435 102.505 9.60435Z" fill="#2E90FA"/>
<path d="M82.4251 17.1781C85.1507 17.1781 86.8137 16.6881 87.807 15.3515H91.7336C90.8328 18.6929 87.4605 20.2745 82.4251 20.2745C77.2511 20.2745 73.2321 18.3142 73.2321 13.5026C73.2321 8.66876 77.1357 6.70848 82.6561 6.70848C87.8301 6.70848 91.9646 8.42373 91.9646 14.3937H77.2742C77.7131 16.4876 79.7919 17.1781 82.4251 17.1781ZM82.633 9.60435C79.9305 9.60435 78.0365 10.1167 77.4128 11.9656H87.7377C87.0678 10.1167 85.1276 9.60435 82.633 9.60435Z" fill="#2E90FA"/>
<path d="M71.6073 4.45862V20.0517H67.4496V9.35931L60.7281 20.0517H57.7254L51.0038 9.35931V20.0517H46.8462V4.45862H52.459L59.2267 15.4629L65.9945 4.45862H71.6073Z" fill="#2E90FA"/>
<path d="M106.137 28.9738C106.323 29.9234 107.1 30.4616 108.117 30.4616C108.872 30.4616 109.419 30.1239 109.693 29.6913L110.502 30.1345C110.021 30.852 109.189 31.3268 108.095 31.3268C106.334 31.3268 105.163 30.1345 105.163 28.5517C105.163 26.99 106.323 25.7766 108.03 25.7766C109.682 25.7766 110.754 27.085 110.754 28.5623C110.754 28.6994 110.743 28.8366 110.721 28.9738H106.137ZM108.03 26.6418C107.001 26.6418 106.29 27.2538 106.137 28.1718H109.791C109.627 27.1272 108.85 26.6418 108.03 26.6418Z" fill="#98A2B3"/>
<path d="M102.143 31.3268C100.49 31.3268 99.2651 30.1134 99.2651 28.5517C99.2651 26.99 100.49 25.7766 102.143 25.7766C103.226 25.7766 104.145 26.3253 104.561 27.1589L103.762 27.602C103.488 27.0428 102.876 26.6735 102.143 26.6735C101.048 26.6735 100.217 27.486 100.217 28.5517C100.217 29.6069 101.048 30.4194 102.143 30.4194C102.887 30.4194 103.488 30.05 103.795 29.5014L104.604 29.9551C104.145 30.7781 103.215 31.3268 102.143 31.3268Z" fill="#98A2B3"/>
<path d="M98.1299 25.9138V31.1896H97.178V26.8001H95.1539V31.1896H94.202V26.8001H92.1669V31.1896H91.215V26.8001H90.3397V25.9138H91.215V25.7555C91.215 24.3521 92.0466 23.5607 93.6112 23.6663V24.5526C92.6593 24.4787 92.1669 24.8375 92.1669 25.7555V25.9138H94.202V25.65C94.202 24.2466 95.0226 23.5607 96.5871 23.5607C96.9482 23.5607 97.3093 23.6135 97.7141 23.6979V24.5315C97.3093 24.4787 96.9482 24.4471 96.5871 24.4471C95.6353 24.4471 95.1539 24.732 95.1539 25.65V25.9138H98.1299Z" fill="#98A2B3"/>
<path d="M85.7028 31.3268C83.4818 31.3268 81.7421 29.6174 81.7421 27.4965C81.7421 25.3651 83.4818 23.6663 85.7028 23.6663C87.9239 23.6663 89.6745 25.3651 89.6745 27.4965C89.6745 29.6174 87.9239 31.3268 85.7028 31.3268ZM85.7028 30.3666C87.3768 30.3666 88.6569 29.1109 88.6569 27.4965C88.6569 25.8716 87.3768 24.6159 85.7028 24.6159C84.0288 24.6159 82.7487 25.8716 82.7487 27.4965C82.7487 29.1109 84.0288 30.3666 85.7028 30.3666Z" fill="#98A2B3"/>
<path d="M76.9091 31.1896V23.4869H77.861V31.1896H76.9091Z" fill="#98A2B3"/>
<path d="M74.515 25.9138H75.4669V31.1896H74.515V30.2822C74.0774 30.9258 73.3772 31.3268 72.4472 31.3268C70.9263 31.3268 69.679 30.1134 69.679 28.5517C69.679 26.99 70.9263 25.7766 72.4472 25.7766C73.3772 25.7766 74.0774 26.1776 74.515 26.8212V25.9138ZM72.5675 30.4405C73.6726 30.4405 74.515 29.628 74.515 28.5517C74.515 27.4754 73.6726 26.6629 72.5675 26.6629C71.4734 26.6629 70.6309 27.4754 70.6309 28.5517C70.6309 29.628 71.4734 30.4405 72.5675 30.4405Z" fill="#98A2B3"/>
<path d="M69.1362 26.8001H67.6811V29.6596C67.6811 30.4616 68.1625 30.4088 69.1362 30.3666V31.1896C67.4951 31.4007 66.7292 30.9786 66.7292 29.6596V26.8001H65.646V25.9138H66.7292V24.7109L67.6811 24.4365V25.9138H69.1362V26.8001Z" fill="#98A2B3"/>
<path d="M64.2376 24.9536C63.8765 24.9536 63.5921 24.6792 63.5921 24.3416C63.5921 24.0039 63.8765 23.719 64.2376 23.719C64.5877 23.719 64.8722 24.0039 64.8722 24.3416C64.8722 24.6792 64.5877 24.9536 64.2376 24.9536ZM63.7562 31.1896V25.9138H64.7081V31.1896H63.7562Z" fill="#98A2B3"/>
<path d="M61.3731 25.9138H62.314V30.968C62.314 32.6141 60.9463 33.4372 59.524 33.4372C58.2986 33.4372 57.3795 32.9834 56.9309 32.1498L57.7625 31.6961C58.0141 32.192 58.4736 32.5825 59.5459 32.5825C60.6838 32.5825 61.3731 31.9599 61.3731 30.968V30.2189C60.9354 30.8625 60.2352 31.274 59.3161 31.274C57.7625 31.274 56.5261 30.0606 56.5261 28.52C56.5261 26.99 57.7625 25.7766 59.3161 25.7766C60.2352 25.7766 60.9354 26.1776 61.3731 26.8212V25.9138ZM59.4255 30.3983C60.5306 30.3983 61.3731 29.5858 61.3731 28.52C61.3731 27.4649 60.5306 26.6524 59.4255 26.6524C58.3205 26.6524 57.478 27.4649 57.478 28.52C57.478 29.5858 58.3205 30.3983 59.4255 30.3983Z" fill="#98A2B3"/>
<path d="M54.9098 24.9536C54.5488 24.9536 54.2643 24.6792 54.2643 24.3416C54.2643 24.0039 54.5488 23.719 54.9098 23.719C55.2599 23.719 55.5444 24.0039 55.5444 24.3416C55.5444 24.6792 55.2599 24.9536 54.9098 24.9536ZM54.4284 31.1896V25.9138H55.3803V31.1896H54.4284Z" fill="#98A2B3"/>
<path d="M49.6605 23.8034C51.7722 23.8034 53.293 25.4495 53.293 27.4965C53.293 29.5436 51.7722 31.1896 49.6605 31.1896H46.6736V23.8034H49.6605ZM49.6605 30.2611C51.2361 30.2611 52.3192 29.0582 52.3192 27.4965C52.3192 25.9349 51.2361 24.732 49.6605 24.732H47.6911V30.2611H49.6605Z" fill="#98A2B3"/>
<defs>
<filter id="filter0_ii_1_6481" x="3" y="-11" width="35.2549" height="58" filterUnits="userSpaceOnUse" color-interpolation-filters="sRGB">
<feFlood flood-opacity="0" result="BackgroundImageFix"/>
<feBlend mode="normal" in="SourceGraphic" in2="BackgroundImageFix" result="shape"/>
<feColorMatrix in="SourceAlpha" type="matrix" values="0 0 0 0 0 0 0 0 0 0 0 0 0 0 0 0 0 0 127 0" result="hardAlpha"/>
<feOffset dy="12"/>
<feGaussianBlur stdDeviation="8"/>
<feComposite in2="hardAlpha" operator="arithmetic" k2="-1" k3="1"/>
<feColorMatrix type="matrix" values="0 0 0 0 1 0 0 0 0 1 0 0 0 0 1 0 0 0 0.25 0"/>
<feBlend mode="normal" in2="shape" result="effect1_innerShadow_1_6481"/>
<feColorMatrix in="SourceAlpha" type="matrix" values="0 0 0 0 0 0 0 0 0 0 0 0 0 0 0 0 0 0 127 0" result="hardAlpha"/>
<feOffset dy="-12"/>
<feGaussianBlur stdDeviation="8"/>
<feComposite in2="hardAlpha" operator="arithmetic" k2="-1" k3="1"/>
<feColorMatrix type="matrix" values="0 0 0 0 0 0 0 0 0 0 0 0 0 0 0 0 0 0 0.25 0"/>
<feBlend mode="normal" in2="effect1_innerShadow_1_6481" result="effect2_innerShadow_1_6481"/>
</filter>
<filter id="filter1_d_1_6481" x="0.382324" y="0.275879" width="46.4902" height="47.4483" filterUnits="userSpaceOnUse" color-interpolation-filters="sRGB">
<feFlood flood-opacity="0" result="BackgroundImageFix"/>
<feColorMatrix in="SourceAlpha" type="matrix" values="0 0 0 0 0 0 0 0 0 0 0 0 0 0 0 0 0 0 127 0" result="hardAlpha"/>
<feOffset dx="3" dy="6"/>
<feGaussianBlur stdDeviation="6"/>
<feComposite in2="hardAlpha" operator="out"/>
<feColorMatrix type="matrix" values="0 0 0 0 0 0 0 0 0 0 0 0 0 0 0 0 0 0 0.14 0"/>
<feBlend mode="normal" in2="BackgroundImageFix" result="effect1_dropShadow_1_6481"/>
<feBlend mode="normal" in="SourceGraphic" in2="effect1_dropShadow_1_6481" result="shape"/>
</filter>
</defs>
</svg>
