<svg width="220" height="220" viewBox="0 0 220 220" fill="none" xmlns="http://www.w3.org/2000/svg">
<rect x="0.5" y="0.5" width="219" height="219" rx="19.5" stroke="#E4E7EC"/>
<path d="M200 10H20C14.4772 10 10 14.4772 10 20V200C10 205.523 14.4772 210 20 210H200C205.523 210 210 205.523 210 200V20C210 14.4772 205.523 10 200 10Z" fill="white"/>
<path fill-rule="evenodd" clip-rule="evenodd" d="M76.6665 20.3703C76.6665 19.5845 76.9787 18.8308 77.5343 18.2752C78.09 17.7195 78.8436 17.4073 79.6295 17.4073H81.1109C81.8968 17.4073 82.6504 17.7195 83.2061 18.2752C83.7617 18.8308 84.0739 19.5845 84.0739 20.3703V21.8518C84.0739 22.6376 83.7617 23.3913 83.2061 23.9469C82.6504 24.5026 81.8968 24.8148 81.1109 24.8148H79.6295C78.8436 24.8148 78.09 24.5026 77.5343 23.9469C76.9787 23.3913 76.6665 22.6376 76.6665 21.8518V20.3703ZM91.4813 20.3703C91.4813 19.5845 91.7935 18.8308 92.3491 18.2752C92.9048 17.7195 93.6584 17.4073 94.4443 17.4073H95.9258C96.7116 17.4073 97.4652 17.7195 98.0209 18.2752C98.5766 18.8308 98.8887 19.5845 98.8887 20.3703V21.8518C98.8887 22.6376 99.2009 23.3913 99.7565 23.9469C100.312 24.5026 101.066 24.8148 101.852 24.8148H103.333C104.119 24.8148 104.873 24.5026 105.428 23.9469C105.984 23.3913 106.296 22.6376 106.296 21.8518V20.3703C106.296 19.5845 106.608 18.8308 107.164 18.2752C107.72 17.7195 108.473 17.4073 109.259 17.4073H110.741C111.526 17.4073 112.28 17.7195 112.836 18.2752C113.391 18.8308 113.704 19.5845 113.704 20.3703V29.2592C113.704 30.045 113.391 30.7987 112.836 31.3543C112.28 31.91 111.526 32.2222 110.741 32.2222H101.852C101.066 32.2222 100.312 32.5343 99.7565 33.09C99.2009 33.6457 98.8887 34.3993 98.8887 35.1851V44.074C98.8887 44.8598 98.5766 45.6135 98.0209 46.1691C97.4652 46.7248 96.7116 47.037 95.9258 47.037H87.0369C86.251 47.037 85.4974 47.3492 84.9417 47.9048C84.3861 48.4605 84.0739 49.2141 84.0739 49.9999V51.4814C84.0739 52.2673 83.7617 53.0209 83.2061 53.5766C82.6504 54.1322 81.8968 54.4444 81.1109 54.4444H79.6295C78.8436 54.4444 78.09 54.1322 77.5343 53.5766C76.9787 53.0209 76.6665 52.2673 76.6665 51.4814V35.1851C76.6665 34.3993 76.9787 33.6457 77.5343 33.09C78.09 32.5343 78.8436 32.2222 79.6295 32.2222H81.1109C81.8968 32.2222 82.6504 31.91 83.2061 31.3543C83.7617 30.7987 84.0739 30.045 84.0739 29.2592V27.7777C84.0739 26.9919 84.3861 26.2383 84.9417 25.6826C85.4974 25.1269 86.251 24.8148 87.0369 24.8148H88.5183C89.3042 24.8148 90.0578 24.5026 90.6135 23.9469C91.1691 23.3913 91.4813 22.6376 91.4813 21.8518V20.3703ZM121.111 20.3703C121.111 19.5845 121.423 18.8308 121.979 18.2752C122.534 17.7195 123.288 17.4073 124.074 17.4073H125.555C126.341 17.4073 127.095 17.7195 127.651 18.2752C128.206 18.8308 128.518 19.5845 128.518 20.3703V21.8518C128.518 22.6376 128.206 23.3913 127.651 23.9469C127.095 24.5026 126.341 24.8148 125.555 24.8148H124.074C123.288 24.8148 122.534 24.5026 121.979 23.9469C121.423 23.3913 121.111 22.6376 121.111 21.8518V20.3703ZM135.926 20.3703C135.926 19.5845 136.238 18.8308 136.794 18.2752C137.349 17.7195 138.103 17.4073 138.889 17.4073H140.37C141.156 17.4073 141.91 17.7195 142.465 18.2752C143.021 18.8308 143.333 19.5845 143.333 20.3703V21.8518C143.333 22.6376 143.021 23.3913 142.465 23.9469C141.91 24.5026 141.156 24.8148 140.37 24.8148H138.889C138.103 24.8148 137.349 24.5026 136.794 23.9469C136.238 23.3913 135.926 22.6376 135.926 21.8518V20.3703ZM113.704 35.1851C113.704 34.3993 114.016 33.6457 114.571 33.09C115.127 32.5343 115.881 32.2222 116.666 32.2222H132.963C133.749 32.2222 134.502 32.5343 135.058 33.09C135.614 33.6457 135.926 34.3993 135.926 35.1851V36.6666C135.926 37.4524 135.614 38.2061 135.058 38.7617C134.502 39.3174 133.749 39.6296 132.963 39.6296H131.481C130.695 39.6296 129.942 39.9417 129.386 40.4974C128.831 41.0531 128.518 41.8067 128.518 42.5925V44.074C128.518 44.8598 128.206 45.6135 127.651 46.1691C127.095 46.7248 126.341 47.037 125.555 47.037H124.074C123.288 47.037 122.534 47.3492 121.979 47.9048C121.423 48.4605 121.111 49.2141 121.111 49.9999V51.4814C121.111 52.2673 120.799 53.0209 120.243 53.5766C119.687 54.1322 118.934 54.4444 118.148 54.4444H109.259C108.473 54.4444 107.72 54.7566 107.164 55.3122C106.608 55.8679 106.296 56.6215 106.296 57.4074V58.8888C106.296 59.6747 105.984 60.4283 105.428 60.984C104.873 61.5396 104.119 61.8518 103.333 61.8518H101.852C101.066 61.8518 100.312 62.164 99.7565 62.7196C99.2009 63.2753 98.8887 64.0289 98.8887 64.8148V73.7037C98.8887 74.4895 99.2009 75.2431 99.7565 75.7988C100.312 76.3544 101.066 76.6666 101.852 76.6666H103.333C104.119 76.6666 104.873 76.3544 105.428 75.7988C105.984 75.2431 106.296 74.4895 106.296 73.7037V64.8148C106.296 64.0289 106.608 63.2753 107.164 62.7196C107.72 62.164 108.473 61.8518 109.259 61.8518H110.741C111.526 61.8518 112.28 62.164 112.836 62.7196C113.391 63.2753 113.704 64.0289 113.704 64.8148V73.7037C113.704 74.4895 114.016 75.2431 114.571 75.7988C115.127 76.3544 115.881 76.6666 116.666 76.6666H118.148C118.934 76.6666 119.687 76.9788 120.243 77.5344C120.799 78.0901 121.111 78.8438 121.111 79.6296V95.9259C121.111 96.7117 120.799 97.4653 120.243 98.021C119.687 98.5767 118.934 98.8888 118.148 98.8888H101.852C101.066 98.8888 100.312 99.201 99.7565 99.7567C99.2009 100.312 98.8887 101.066 98.8887 101.852V110.741C98.8887 111.527 98.5766 112.28 98.0209 112.836C97.4652 113.391 96.7116 113.704 95.9258 113.704H94.4443C93.6584 113.704 92.9048 114.016 92.3491 114.571C91.7935 115.127 91.4813 115.881 91.4813 116.667V125.556C91.4813 126.341 91.1691 127.095 90.6135 127.651C90.0578 128.206 89.3042 128.518 88.5183 128.518H87.0369C86.251 128.518 85.4974 128.206 84.9417 127.651C84.3861 127.095 84.0739 126.341 84.0739 125.556V124.074C84.0739 123.288 83.7617 122.535 83.2061 121.979C82.6504 121.423 81.8968 121.111 81.1109 121.111H72.222C71.4362 121.111 70.6826 120.799 70.1269 120.243C69.5713 119.688 69.2591 118.934 69.2591 118.148V116.667C69.2591 115.881 69.5713 115.127 70.1269 114.571C70.6826 114.016 71.4362 113.704 72.222 113.704H73.7035C74.4894 113.704 75.243 113.391 75.7987 112.836C76.3543 112.28 76.6665 111.527 76.6665 110.741V109.259C76.6665 108.473 76.3543 107.72 75.7987 107.164C75.243 106.608 74.4894 106.296 73.7035 106.296H72.222C71.4362 106.296 70.6826 105.984 70.1269 105.428C69.5713 104.873 69.2591 104.119 69.2591 103.333V101.852C69.2591 101.066 68.9469 100.312 68.3913 99.7567C67.8356 99.201 67.0819 98.8888 66.2961 98.8888H64.8146C64.0288 98.8888 63.2752 99.201 62.7195 99.7567C62.1638 100.312 61.8517 101.066 61.8517 101.852V103.333C61.8517 104.119 62.1638 104.873 62.7195 105.428C63.2752 105.984 64.0288 106.296 64.8146 106.296H66.2961C67.0819 106.296 67.8356 106.608 68.3913 107.164C68.9469 107.72 69.2591 108.473 69.2591 109.259V110.741C69.2591 111.527 68.9469 112.28 68.3913 112.836C67.8356 113.391 67.0819 113.704 66.2961 113.704H64.8146C64.0288 113.704 63.2752 114.016 62.7195 114.571C62.1638 115.127 61.8517 115.881 61.8517 116.667V118.148C61.8517 118.934 62.1638 119.688 62.7195 120.243C63.2752 120.799 64.0288 121.111 64.8146 121.111H66.2961C67.0819 121.111 67.8356 121.423 68.3913 121.979C68.9469 122.535 69.2591 123.288 69.2591 124.074V125.556C69.2591 126.341 68.9469 127.095 68.3913 127.651C67.8356 128.206 67.0819 128.518 66.2961 128.518H57.4072C56.6214 128.518 55.8678 128.831 55.3121 129.386C54.7564 129.942 54.4443 130.696 54.4443 131.481V132.963C54.4443 133.749 54.1321 134.502 53.5764 135.058C53.0208 135.614 52.2671 135.926 51.4813 135.926H49.9998C49.214 135.926 48.4604 135.614 47.9047 135.058C47.349 134.502 47.0369 133.749 47.0369 132.963V131.481C47.0369 130.696 46.7247 129.942 46.169 129.386C45.6134 128.831 44.8597 128.518 44.0739 128.518H42.5924C41.8066 128.518 41.0529 128.206 40.4973 127.651C39.9416 127.095 39.6295 126.341 39.6295 125.556V109.259C39.6295 108.473 39.3173 107.72 38.7616 107.164C38.206 106.608 37.4523 106.296 36.6665 106.296H35.185C34.3992 106.296 33.6455 106.608 33.0899 107.164C32.5342 107.72 32.222 108.473 32.222 109.259V110.741C32.222 111.527 31.9099 112.28 31.3542 112.836C30.7985 113.391 30.0449 113.704 29.2591 113.704H20.3702C19.5844 113.704 18.8307 113.391 18.2751 112.836C17.7194 112.28 17.4072 111.527 17.4072 110.741V101.852C17.4072 101.066 17.7194 100.312 18.2751 99.7567C18.8307 99.201 19.5844 98.8888 20.3702 98.8888H29.2591C30.0449 98.8888 30.7985 98.5767 31.3542 98.021C31.9099 97.4653 32.222 96.7117 32.222 95.9259V87.037C32.222 86.2512 31.9099 85.4975 31.3542 84.9418C30.7985 84.3862 30.0449 84.074 29.2591 84.074H27.7776C26.9918 84.074 26.2381 84.3862 25.6825 84.9418C25.1268 85.4975 24.8146 86.2512 24.8146 87.037V88.5185C24.8146 89.3043 24.5025 90.0579 23.9468 90.6136C23.3911 91.1693 22.6375 91.4814 21.8517 91.4814H20.3702C19.5844 91.4814 18.8307 91.1693 18.2751 90.6136C17.7194 90.0579 17.4072 89.3043 17.4072 88.5185V79.6296C17.4072 78.8438 17.7194 78.0901 18.2751 77.5344C18.8307 76.9788 19.5844 76.6666 20.3702 76.6666H44.0739C44.8597 76.6666 45.6134 76.9788 46.169 77.5344C46.7247 78.0901 47.0369 78.8438 47.0369 79.6296V88.5185C47.0369 89.3043 46.7247 90.0579 46.169 90.6136C45.6134 91.1693 44.8597 91.4814 44.0739 91.4814H42.5924C41.8066 91.4814 41.0529 91.7936 40.4973 92.3493C39.9416 92.9049 39.6295 93.6586 39.6295 94.4444V95.9259C39.6295 96.7117 39.9416 97.4653 40.4973 98.021C41.0529 98.5767 41.8066 98.8888 42.5924 98.8888H44.0739C44.8597 98.8888 45.6134 99.201 46.169 99.7567C46.7247 100.312 47.0369 101.066 47.0369 101.852V118.148C47.0369 118.934 47.349 119.688 47.9047 120.243C48.4604 120.799 49.214 121.111 49.9998 121.111H51.4813C52.2671 121.111 53.0208 120.799 53.5764 120.243C54.1321 119.688 54.4443 118.934 54.4443 118.148V101.852C54.4443 101.066 54.1321 100.312 53.5764 99.7567C53.0208 99.201 52.2671 98.8888 51.4813 98.8888H49.9998C49.214 98.8888 48.4604 98.5767 47.9047 98.021C47.349 97.4653 47.0369 96.7117 47.0369 95.9259V94.4444C47.0369 93.6586 47.349 92.9049 47.9047 92.3493C48.4604 91.7936 49.214 91.4814 49.9998 91.4814H51.4813C52.2671 91.4814 53.0208 91.1693 53.5764 90.6136C54.1321 90.0579 54.4443 89.3043 54.4443 88.5185V87.037C54.4443 86.2512 54.7564 85.4975 55.3121 84.9418C55.8678 84.3862 56.6214 84.074 57.4072 84.074H58.8887C59.6745 84.074 60.4282 84.3862 60.9838 84.9418C61.5395 85.4975 61.8517 86.2512 61.8517 87.037V88.5185C61.8517 89.3043 62.1638 90.0579 62.7195 90.6136C63.2752 91.1693 64.0288 91.4814 64.8146 91.4814H88.5183C89.3042 91.4814 90.0578 91.1693 90.6135 90.6136C91.1691 90.0579 91.4813 89.3043 91.4813 88.5185V57.4074C91.4813 56.6215 91.7935 55.8679 92.3491 55.3122C92.9048 54.7566 93.6584 54.4444 94.4443 54.4444H95.9258C96.7116 54.4444 97.4652 54.1322 98.0209 53.5766C98.5766 53.0209 98.8887 52.2673 98.8887 51.4814V49.9999C98.8887 49.2141 99.2009 48.4605 99.7565 47.9048C100.312 47.3492 101.066 47.037 101.852 47.037H103.333C104.119 47.037 104.873 46.7248 105.428 46.1691C105.984 45.6135 106.296 44.8598 106.296 44.074V42.5925C106.296 41.8067 106.608 41.0531 107.164 40.4974C107.72 39.9417 108.473 39.6296 109.259 39.6296H110.741C111.526 39.6296 112.28 39.3174 112.836 38.7617C113.391 38.2061 113.704 37.4524 113.704 36.6666V35.1851ZM98.8887 87.037C98.8887 86.2512 99.2009 85.4975 99.7565 84.9418C100.312 84.3862 101.066 84.074 101.852 84.074H103.333C104.119 84.074 104.873 84.3862 105.428 84.9418C105.984 85.4975 106.296 86.2512 106.296 87.037V88.5185C106.296 89.3043 105.984 90.0579 105.428 90.6136C104.873 91.1693 104.119 91.4814 103.333 91.4814H101.852C101.066 91.4814 100.312 91.1693 99.7565 90.6136C99.2009 90.0579 98.8887 89.3043 98.8887 88.5185V87.037ZM128.518 49.9999C128.518 49.2141 128.831 48.4605 129.386 47.9048C129.942 47.3492 130.695 47.037 131.481 47.037H132.963C133.749 47.037 134.502 47.3492 135.058 47.9048C135.614 48.4605 135.926 49.2141 135.926 49.9999V51.4814C135.926 52.2673 135.614 53.0209 135.058 53.5766C134.502 54.1322 133.749 54.4444 132.963 54.4444H131.481C130.695 54.4444 129.942 54.1322 129.386 53.5766C128.831 53.0209 128.518 52.2673 128.518 51.4814V49.9999ZM76.6665 64.8148C76.6665 64.0289 76.9787 63.2753 77.5343 62.7196C78.09 62.164 78.8436 61.8518 79.6295 61.8518H81.1109C81.8968 61.8518 82.6504 62.164 83.2061 62.7196C83.7617 63.2753 84.0739 64.0289 84.0739 64.8148V66.2962C84.0739 67.0821 83.7617 67.8357 83.2061 68.3914C82.6504 68.947 81.8968 69.2592 81.1109 69.2592H79.6295C78.8436 69.2592 78.09 68.947 77.5343 68.3914C76.9787 67.8357 76.6665 67.0821 76.6665 66.2962V64.8148ZM121.111 64.8148C121.111 64.0289 121.423 63.2753 121.979 62.7196C122.534 62.164 123.288 61.8518 124.074 61.8518H125.555C126.341 61.8518 127.095 62.164 127.651 62.7196C128.206 63.2753 128.518 64.0289 128.518 64.8148V66.2962C128.518 67.0821 128.831 67.8357 129.386 68.3914C129.942 68.947 130.695 69.2592 131.481 69.2592H132.963C133.749 69.2592 134.502 68.947 135.058 68.3914C135.614 67.8357 135.926 67.0821 135.926 66.2962V64.8148C135.926 64.0289 136.238 63.2753 136.794 62.7196C137.349 62.164 138.103 61.8518 138.889 61.8518H140.37C141.156 61.8518 141.91 62.164 142.465 62.7196C143.021 63.2753 143.333 64.0289 143.333 64.8148V73.7037C143.333 74.4895 143.645 75.2431 144.201 75.7988C144.757 76.3544 145.51 76.6666 146.296 76.6666H147.778C148.563 76.6666 149.317 76.9788 149.873 77.5344C150.428 78.0901 150.741 78.8438 150.741 79.6296V81.1111C150.741 81.8969 150.428 82.6505 149.873 83.2062C149.317 83.7619 148.563 84.074 147.778 84.074H146.296C145.51 84.074 144.757 84.3862 144.201 84.9418C143.645 85.4975 143.333 86.2512 143.333 87.037V88.5185C143.333 89.3043 143.021 90.0579 142.465 90.6136C141.91 91.1693 141.156 91.4814 140.37 91.4814H138.889C138.103 91.4814 137.349 91.1693 136.794 90.6136C136.238 90.0579 135.926 89.3043 135.926 88.5185V87.037C135.926 86.2512 135.614 85.4975 135.058 84.9418C134.502 84.3862 133.749 84.074 132.963 84.074H131.481C130.695 84.074 129.942 83.7619 129.386 83.2062C128.831 82.6505 128.518 81.8969 128.518 81.1111V79.6296C128.518 78.8438 128.206 78.0901 127.651 77.5344C127.095 76.9788 126.341 76.6666 125.555 76.6666H124.074C123.288 76.6666 122.534 76.3544 121.979 75.7988C121.423 75.2431 121.111 74.4895 121.111 73.7037V64.8148ZM61.8517 79.6296C61.8517 78.8438 62.1638 78.0901 62.7195 77.5344C63.2752 76.9788 64.0288 76.6666 64.8146 76.6666H66.2961C67.0819 76.6666 67.8356 76.9788 68.3913 77.5344C68.9469 78.0901 69.2591 78.8438 69.2591 79.6296V81.1111C69.2591 81.8969 68.9469 82.6505 68.3913 83.2062C67.8356 83.7619 67.0819 84.074 66.2961 84.074H64.8146C64.0288 84.074 63.2752 83.7619 62.7195 83.2062C62.1638 82.6505 61.8517 81.8969 61.8517 81.1111V79.6296ZM76.6665 79.6296C76.6665 78.8438 76.9787 78.0901 77.5343 77.5344C78.09 76.9788 78.8436 76.6666 79.6295 76.6666H81.1109C81.8968 76.6666 82.6504 76.9788 83.2061 77.5344C83.7617 78.0901 84.0739 78.8438 84.0739 79.6296V81.1111C84.0739 81.8969 83.7617 82.6505 83.2061 83.2062C82.6504 83.7619 81.8968 84.074 81.1109 84.074H79.6295C78.8436 84.074 78.09 83.7619 77.5343 83.2062C76.9787 82.6505 76.6665 81.8969 76.6665 81.1111V79.6296ZM165.555 79.6296C165.555 78.8438 165.868 78.0901 166.423 77.5344C166.979 76.9788 167.733 76.6666 168.518 76.6666H184.815C185.6 76.6666 186.354 76.9788 186.91 77.5344C187.465 78.0901 187.778 78.8438 187.778 79.6296V81.1111C187.778 81.8969 187.465 82.6505 186.91 83.2062C186.354 83.7619 185.6 84.074 184.815 84.074H168.518C167.733 84.074 166.979 83.7619 166.423 83.2062C165.868 82.6505 165.555 81.8969 165.555 81.1111V79.6296ZM195.185 79.6296C195.185 78.8438 195.497 78.0901 196.053 77.5344C196.609 76.9788 197.362 76.6666 198.148 76.6666H199.629C200.415 76.6666 201.169 76.9788 201.725 77.5344C202.28 78.0901 202.592 78.8438 202.592 79.6296V81.1111C202.592 81.8969 202.28 82.6505 201.725 83.2062C201.169 83.7619 200.415 84.074 199.629 84.074H198.148C197.362 84.074 196.609 83.7619 196.053 83.2062C195.497 82.6505 195.185 81.8969 195.185 81.1111V79.6296ZM158.148 87.037C158.148 86.2512 158.46 85.4975 159.016 84.9418C159.571 84.3862 160.325 84.074 161.111 84.074H162.592C163.378 84.074 164.132 84.3862 164.688 84.9418C165.243 85.4975 165.555 86.2512 165.555 87.037V88.5185C165.555 89.3043 165.868 90.0579 166.423 90.6136C166.979 91.1693 167.733 91.4814 168.518 91.4814H170C170.786 91.4814 171.539 91.7936 172.095 92.3493C172.651 92.9049 172.963 93.6586 172.963 94.4444V95.9259C172.963 96.7117 172.651 97.4653 172.095 98.021C171.539 98.5767 170.786 98.8888 170 98.8888H161.111C160.325 98.8888 159.571 98.5767 159.016 98.021C158.46 97.4653 158.148 96.7117 158.148 95.9259V87.037ZM187.778 87.037C187.778 86.2512 188.09 85.4975 188.645 84.9418C189.201 84.3862 189.955 84.074 190.741 84.074H192.222C193.008 84.074 193.762 84.3862 194.317 84.9418C194.873 85.4975 195.185 86.2512 195.185 87.037V88.5185C195.185 89.3043 194.873 90.0579 194.317 90.6136C193.762 91.1693 193.008 91.4814 192.222 91.4814H190.741C189.955 91.4814 189.201 91.1693 188.645 90.6136C188.09 90.0579 187.778 89.3043 187.778 88.5185V87.037ZM128.518 101.852C128.518 101.066 128.831 100.312 129.386 99.7567C129.942 99.201 130.695 98.8888 131.481 98.8888H140.37C141.156 98.8888 141.91 99.201 142.465 99.7567C143.021 100.312 143.333 101.066 143.333 101.852V103.333C143.333 104.119 143.645 104.873 144.201 105.428C144.757 105.984 145.51 106.296 146.296 106.296H155.185C155.971 106.296 156.724 106.608 157.28 107.164C157.836 107.72 158.148 108.473 158.148 109.259V110.741C158.148 111.527 158.46 112.28 159.016 112.836C159.571 113.391 160.325 113.704 161.111 113.704H162.592C163.378 113.704 164.132 113.391 164.688 112.836C165.243 112.28 165.555 111.527 165.555 110.741V109.259C165.555 108.473 165.868 107.72 166.423 107.164C166.979 106.608 167.733 106.296 168.518 106.296H170C170.786 106.296 171.539 106.608 172.095 107.164C172.651 107.72 172.963 108.473 172.963 109.259V132.963C172.963 133.749 172.651 134.502 172.095 135.058C171.539 135.614 170.786 135.926 170 135.926H161.111C160.325 135.926 159.571 135.614 159.016 135.058C158.46 134.502 158.148 133.749 158.148 132.963V131.481C158.148 130.696 158.46 129.942 159.016 129.386C159.571 128.831 160.325 128.518 161.111 128.518H162.592C163.378 128.518 164.132 128.206 164.688 127.651C165.243 127.095 165.555 126.341 165.555 125.556V124.074C165.555 123.288 165.243 122.535 164.688 121.979C164.132 121.423 163.378 121.111 162.592 121.111H161.111C160.325 121.111 159.571 121.423 159.016 121.979C158.46 122.535 158.148 123.288 158.148 124.074V125.556C158.148 126.341 157.836 127.095 157.28 127.651C156.724 128.206 155.971 128.518 155.185 128.518H153.704C152.918 128.518 152.164 128.831 151.608 129.386C151.053 129.942 150.741 130.696 150.741 131.481V132.963C150.741 133.749 150.428 134.502 149.873 135.058C149.317 135.614 148.563 135.926 147.778 135.926H146.296C145.51 135.926 144.757 135.614 144.201 135.058C143.645 134.502 143.333 133.749 143.333 132.963V131.481C143.333 130.696 143.021 129.942 142.465 129.386C141.91 128.831 141.156 128.518 140.37 128.518H138.889C138.103 128.518 137.349 128.206 136.794 127.651C136.238 127.095 135.926 126.341 135.926 125.556V124.074C135.926 123.288 135.614 122.535 135.058 121.979C134.502 121.423 133.749 121.111 132.963 121.111H124.074C123.288 121.111 122.534 120.799 121.979 120.243C121.423 119.688 121.111 118.934 121.111 118.148V109.259C121.111 108.473 121.423 107.72 121.979 107.164C122.534 106.608 123.288 106.296 124.074 106.296H125.555C126.341 106.296 127.095 105.984 127.651 105.428C128.206 104.873 128.518 104.119 128.518 103.333V101.852ZM172.963 101.852C172.963 101.066 173.275 100.312 173.831 99.7567C174.386 99.201 175.14 98.8888 175.926 98.8888H184.815C185.6 98.8888 186.354 99.201 186.91 99.7567C187.465 100.312 187.778 101.066 187.778 101.852V103.333C187.778 104.119 188.09 104.873 188.645 105.428C189.201 105.984 189.955 106.296 190.741 106.296H199.629C200.415 106.296 201.169 106.608 201.725 107.164C202.28 107.72 202.592 108.473 202.592 109.259V118.148C202.592 118.934 202.28 119.688 201.725 120.243C201.169 120.799 200.415 121.111 199.629 121.111H198.148C197.362 121.111 196.609 120.799 196.053 120.243C195.497 119.688 195.185 118.934 195.185 118.148V116.667C195.185 115.881 194.873 115.127 194.317 114.571C193.762 114.016 193.008 113.704 192.222 113.704H183.333C182.547 113.704 181.794 113.391 181.238 112.836C180.682 112.28 180.37 111.527 180.37 110.741V109.259C180.37 108.473 180.058 107.72 179.502 107.164C178.947 106.608 178.193 106.296 177.407 106.296H175.926C175.14 106.296 174.386 105.984 173.831 105.428C173.275 104.873 172.963 104.119 172.963 103.333V101.852ZM106.296 109.259C106.296 108.473 106.608 107.72 107.164 107.164C107.72 106.608 108.473 106.296 109.259 106.296H110.741C111.526 106.296 112.28 106.608 112.836 107.164C113.391 107.72 113.704 108.473 113.704 109.259V118.148C113.704 118.934 113.391 119.688 112.836 120.243C112.28 120.799 111.526 121.111 110.741 121.111H109.259C108.473 121.111 107.72 121.423 107.164 121.979C106.608 122.535 106.296 123.288 106.296 124.074V132.963C106.296 133.749 105.984 134.502 105.428 135.058C104.873 135.614 104.119 135.926 103.333 135.926H101.852C101.066 135.926 100.312 136.238 99.7565 136.794C99.2009 137.349 98.8887 138.103 98.8887 138.889V140.37C98.8887 141.156 98.5766 141.91 98.0209 142.465C97.4652 143.021 96.7116 143.333 95.9258 143.333H94.4443C93.6584 143.333 92.9048 143.021 92.3491 142.465C91.7935 141.91 91.4813 141.156 91.4813 140.37V131.481C91.4813 130.696 91.7935 129.942 92.3491 129.386C92.9048 128.831 93.6584 128.518 94.4443 128.518H95.9258C96.7116 128.518 97.4652 128.206 98.0209 127.651C98.5766 127.095 98.8887 126.341 98.8887 125.556V116.667C98.8887 115.881 99.2009 115.127 99.7565 114.571C100.312 114.016 101.066 113.704 101.852 113.704H103.333C104.119 113.704 104.873 113.391 105.428 112.836C105.984 112.28 106.296 111.527 106.296 110.741V109.259ZM24.8146 124.074C24.8146 123.288 25.1268 122.535 25.6825 121.979C26.2381 121.423 26.9918 121.111 27.7776 121.111H29.2591C30.0449 121.111 30.7985 121.423 31.3542 121.979C31.9099 122.535 32.222 123.288 32.222 124.074V125.556C32.222 126.341 31.9099 127.095 31.3542 127.651C30.7985 128.206 30.0449 128.518 29.2591 128.518H27.7776C26.9918 128.518 26.2381 128.206 25.6825 127.651C25.1268 127.095 24.8146 126.341 24.8146 125.556V124.074ZM113.704 124.074C113.704 123.288 114.016 122.535 114.571 121.979C115.127 121.423 115.881 121.111 116.666 121.111H118.148C118.934 121.111 119.687 121.423 120.243 121.979C120.799 122.535 121.111 123.288 121.111 124.074V125.556C121.111 126.341 120.799 127.095 120.243 127.651C119.687 128.206 118.934 128.518 118.148 128.518H116.666C115.881 128.518 115.127 128.206 114.571 127.651C114.016 127.095 113.704 126.341 113.704 125.556V124.074ZM180.37 124.074C180.37 123.288 180.682 122.535 181.238 121.979C181.794 121.423 182.547 121.111 183.333 121.111H192.222C193.008 121.111 193.762 121.423 194.317 121.979C194.873 122.535 195.185 123.288 195.185 124.074V125.556C195.185 126.341 194.873 127.095 194.317 127.651C193.762 128.206 193.008 128.518 192.222 128.518H183.333C182.547 128.518 181.794 128.206 181.238 127.651C180.682 127.095 180.37 126.341 180.37 125.556V124.074ZM17.4072 131.481C17.4072 130.696 17.7194 129.942 18.2751 129.386C18.8307 128.831 19.5844 128.518 20.3702 128.518H21.8517C22.6375 128.518 23.3911 128.831 23.9468 129.386C24.5025 129.942 24.8146 130.696 24.8146 131.481V132.963C24.8146 133.749 24.5025 134.502 23.9468 135.058C23.3911 135.614 22.6375 135.926 21.8517 135.926H20.3702C19.5844 135.926 18.8307 135.614 18.2751 135.058C17.7194 134.502 17.4072 133.749 17.4072 132.963V131.481ZM32.222 131.481C32.222 130.696 32.5342 129.942 33.0899 129.386C33.6455 128.831 34.3992 128.518 35.185 128.518H36.6665C37.4523 128.518 38.206 128.831 38.7616 129.386C39.3173 129.942 39.6295 130.696 39.6295 131.481V132.963C39.6295 133.749 39.3173 134.502 38.7616 135.058C38.206 135.614 37.4523 135.926 36.6665 135.926H35.185C34.3992 135.926 33.6455 135.614 33.0899 135.058C32.5342 134.502 32.222 133.749 32.222 132.963V131.481ZM121.111 131.481C121.111 130.696 121.423 129.942 121.979 129.386C122.534 128.831 123.288 128.518 124.074 128.518H125.555C126.341 128.518 127.095 128.831 127.651 129.386C128.206 129.942 128.518 130.696 128.518 131.481V132.963C128.518 133.749 128.831 134.502 129.386 135.058C129.942 135.614 130.695 135.926 131.481 135.926H132.963C133.749 135.926 134.502 136.238 135.058 136.794C135.614 137.349 135.926 138.103 135.926 138.889V140.37C135.926 141.156 135.614 141.91 135.058 142.465C134.502 143.021 133.749 143.333 132.963 143.333H131.481C130.695 143.333 129.942 143.645 129.386 144.201C128.831 144.757 128.518 145.51 128.518 146.296V155.185C128.518 155.971 128.831 156.725 129.386 157.28C129.942 157.836 130.695 158.148 131.481 158.148H132.963C133.749 158.148 134.502 158.46 135.058 159.016C135.614 159.572 135.926 160.325 135.926 161.111V162.593C135.926 163.378 135.614 164.132 135.058 164.688C134.502 165.243 133.749 165.556 132.963 165.556H131.481C130.695 165.556 129.942 165.868 129.386 166.423C128.831 166.979 128.518 167.733 128.518 168.518V170C128.518 170.786 128.206 171.539 127.651 172.095C127.095 172.651 126.341 172.963 125.555 172.963H116.666C115.881 172.963 115.127 172.651 114.571 172.095C114.016 171.539 113.704 170.786 113.704 170V153.704C113.704 152.918 114.016 152.164 114.571 151.609C115.127 151.053 115.881 150.741 116.666 150.741H118.148C118.934 150.741 119.687 150.429 120.243 149.873C120.799 149.317 121.111 148.564 121.111 147.778V131.481ZM195.185 131.481C195.185 130.696 195.497 129.942 196.053 129.386C196.609 128.831 197.362 128.518 198.148 128.518H199.629C200.415 128.518 201.169 128.831 201.725 129.386C202.28 129.942 202.592 130.696 202.592 131.481V162.593C202.592 163.378 202.28 164.132 201.725 164.688C201.169 165.243 200.415 165.556 199.629 165.556H198.148C197.362 165.556 196.609 165.243 196.053 164.688C195.497 164.132 195.185 163.378 195.185 162.593V161.111C195.185 160.325 194.873 159.572 194.317 159.016C193.762 158.46 193.008 158.148 192.222 158.148H183.333C182.547 158.148 181.794 157.836 181.238 157.28C180.682 156.725 180.37 155.971 180.37 155.185V146.296C180.37 145.51 180.058 144.757 179.502 144.201C178.947 143.645 178.193 143.333 177.407 143.333H175.926C175.14 143.333 174.386 143.021 173.831 142.465C173.275 141.91 172.963 141.156 172.963 140.37V138.889C172.963 138.103 173.275 137.349 173.831 136.794C174.386 136.238 175.14 135.926 175.926 135.926H192.222C193.008 135.926 193.762 135.614 194.317 135.058C194.873 134.502 195.185 133.749 195.185 132.963V131.481ZM187.778 146.296C187.778 145.51 188.09 144.757 188.645 144.201C189.201 143.645 189.955 143.333 190.741 143.333H192.222C193.008 143.333 193.762 143.645 194.317 144.201C194.873 144.757 195.185 145.51 195.185 146.296V147.778C195.185 148.564 194.873 149.317 194.317 149.873C193.762 150.429 193.008 150.741 192.222 150.741H190.741C189.955 150.741 189.201 150.429 188.645 149.873C188.09 149.317 187.778 148.564 187.778 147.778V146.296ZM54.4443 138.889C54.4443 138.103 54.7564 137.349 55.3121 136.794C55.8678 136.238 56.6214 135.926 57.4072 135.926H66.2961C67.0819 135.926 67.8356 136.238 68.3913 136.794C68.9469 137.349 69.2591 138.103 69.2591 138.889V140.37C69.2591 141.156 68.9469 141.91 68.3913 142.465C67.8356 143.021 67.0819 143.333 66.2961 143.333H57.4072C56.6214 143.333 55.8678 143.021 55.3121 142.465C54.7564 141.91 54.4443 141.156 54.4443 140.37V138.889ZM106.296 138.889C106.296 138.103 106.608 137.349 107.164 136.794C107.72 136.238 108.473 135.926 109.259 135.926H110.741C111.526 135.926 112.28 136.238 112.836 136.794C113.391 137.349 113.704 138.103 113.704 138.889V140.37C113.704 141.156 113.391 141.91 112.836 142.465C112.28 143.021 111.526 143.333 110.741 143.333H109.259C108.473 143.333 107.72 143.021 107.164 142.465C106.608 141.91 106.296 141.156 106.296 140.37V138.889ZM76.6665 146.296C76.6665 145.51 76.9787 144.757 77.5343 144.201C78.09 143.645 78.8436 143.333 79.6295 143.333H88.5183C89.3042 143.333 90.0578 143.645 90.6135 144.201C91.1691 144.757 91.4813 145.51 91.4813 146.296V147.778C91.4813 148.564 91.7935 149.317 92.3491 149.873C92.9048 150.429 93.6584 150.741 94.4443 150.741H95.9258C96.7116 150.741 97.4652 151.053 98.0209 151.609C98.5766 152.164 98.8887 152.918 98.8887 153.704V155.185C98.8887 155.971 99.2009 156.725 99.7565 157.28C100.312 157.836 101.066 158.148 101.852 158.148H103.333C104.119 158.148 104.873 158.46 105.428 159.016C105.984 159.572 106.296 160.325 106.296 161.111V162.593C106.296 163.378 105.984 164.132 105.428 164.688C104.873 165.243 104.119 165.556 103.333 165.556H94.4443C93.6584 165.556 92.9048 165.243 92.3491 164.688C91.7935 164.132 91.4813 163.378 91.4813 162.593V161.111C91.4813 160.325 91.1691 159.572 90.6135 159.016C90.0578 158.46 89.3042 158.148 88.5183 158.148H87.0369C86.251 158.148 85.4974 157.836 84.9417 157.28C84.3861 156.725 84.0739 155.971 84.0739 155.185V153.704C84.0739 152.918 83.7617 152.164 83.2061 151.609C82.6504 151.053 81.8968 150.741 81.1109 150.741H79.6295C78.8436 150.741 78.09 150.429 77.5343 149.873C76.9787 149.317 76.6665 148.564 76.6665 147.778V146.296ZM84.0739 168.518C84.0739 167.733 84.3861 166.979 84.9417 166.423C85.4974 165.868 86.251 165.556 87.0369 165.556H88.5183C89.3042 165.556 90.0578 165.868 90.6135 166.423C91.1691 166.979 91.4813 167.733 91.4813 168.518V170C91.4813 170.786 91.1691 171.539 90.6135 172.095C90.0578 172.651 89.3042 172.963 88.5183 172.963H87.0369C86.251 172.963 85.4974 172.651 84.9417 172.095C84.3861 171.539 84.0739 170.786 84.0739 170V168.518ZM172.963 168.518C172.963 167.733 173.275 166.979 173.831 166.423C174.386 165.868 175.14 165.556 175.926 165.556H177.407C178.193 165.556 178.947 165.868 179.502 166.423C180.058 166.979 180.37 167.733 180.37 168.518V170C180.37 170.786 180.682 171.539 181.238 172.095C181.794 172.651 182.547 172.963 183.333 172.963H199.629C200.415 172.963 201.169 173.275 201.725 173.831C202.28 174.386 202.592 175.14 202.592 175.926V177.407C202.592 178.193 202.28 178.947 201.725 179.503C201.169 180.058 200.415 180.37 199.629 180.37H198.148C197.362 180.37 196.609 180.682 196.053 181.238C195.497 181.794 195.185 182.547 195.185 183.333V184.815C195.185 185.601 194.873 186.354 194.317 186.91C193.762 187.466 193.008 187.778 192.222 187.778H190.741C189.955 187.778 189.201 188.09 188.645 188.646C188.09 189.201 187.778 189.955 187.778 190.741V192.222C187.778 193.008 188.09 193.762 188.645 194.317C189.201 194.873 189.955 195.185 190.741 195.185H199.629C200.415 195.185 201.169 195.497 201.725 196.053C202.28 196.609 202.592 197.362 202.592 198.148V199.63C202.592 200.415 202.28 201.169 201.725 201.725C201.169 202.28 200.415 202.593 199.629 202.593H161.111C160.325 202.593 159.571 202.28 159.016 201.725C158.46 201.169 158.148 200.415 158.148 199.63V198.148C158.148 197.362 158.46 196.609 159.016 196.053C159.571 195.497 160.325 195.185 161.111 195.185H162.592C163.378 195.185 164.132 194.873 164.688 194.317C165.243 193.762 165.555 193.008 165.555 192.222V175.926C165.555 175.14 165.868 174.386 166.423 173.831C166.979 173.275 167.733 172.963 168.518 172.963H170C170.786 172.963 171.539 172.651 172.095 172.095C172.651 171.539 172.963 170.786 172.963 170V168.518ZM172.963 183.333C172.963 182.547 173.275 181.794 173.831 181.238C174.386 180.682 175.14 180.37 175.926 180.37H177.407C178.193 180.37 178.947 180.682 179.502 181.238C180.058 181.794 180.37 182.547 180.37 183.333V192.222C180.37 193.008 180.058 193.762 179.502 194.317C178.947 194.873 178.193 195.185 177.407 195.185H175.926C175.14 195.185 174.386 194.873 173.831 194.317C173.275 193.762 172.963 193.008 172.963 192.222V183.333ZM76.6665 175.926C76.6665 175.14 76.9787 174.386 77.5343 173.831C78.09 173.275 78.8436 172.963 79.6295 172.963H81.1109C81.8968 172.963 82.6504 173.275 83.2061 173.831C83.7617 174.386 84.0739 175.14 84.0739 175.926V177.407C84.0739 178.193 84.3861 178.947 84.9417 179.503C85.4974 180.058 86.251 180.37 87.0369 180.37H88.5183C89.3042 180.37 90.0578 180.058 90.6135 179.503C91.1691 178.947 91.4813 178.193 91.4813 177.407V175.926C91.4813 175.14 91.7935 174.386 92.3491 173.831C92.9048 173.275 93.6584 172.963 94.4443 172.963H95.9258C96.7116 172.963 97.4652 173.275 98.0209 173.831C98.5766 174.386 98.8887 175.14 98.8887 175.926V184.815C98.8887 185.601 98.5766 186.354 98.0209 186.91C97.4652 187.466 96.7116 187.778 95.9258 187.778H94.4443C93.6584 187.778 92.9048 188.09 92.3491 188.646C91.7935 189.201 91.4813 189.955 91.4813 190.741V192.222C91.4813 193.008 91.1691 193.762 90.6135 194.317C90.0578 194.873 89.3042 195.185 88.5183 195.185H87.0369C86.251 195.185 85.4974 195.497 84.9417 196.053C84.3861 196.609 84.0739 197.362 84.0739 198.148V199.63C84.0739 200.415 83.7617 201.169 83.2061 201.725C82.6504 202.28 81.8968 202.593 81.1109 202.593H79.6295C78.8436 202.593 78.09 202.28 77.5343 201.725C76.9787 201.169 76.6665 200.415 76.6665 199.63V175.926ZM150.741 175.926C150.741 175.14 151.053 174.386 151.608 173.831C152.164 173.275 152.918 172.963 153.704 172.963H155.185C155.971 172.963 156.724 173.275 157.28 173.831C157.836 174.386 158.148 175.14 158.148 175.926V192.222C158.148 193.008 157.836 193.762 157.28 194.317C156.724 194.873 155.971 195.185 155.185 195.185H146.296C145.51 195.185 144.757 194.873 144.201 194.317C143.645 193.762 143.333 193.008 143.333 192.222V190.741C143.333 189.955 143.021 189.201 142.465 188.646C141.91 188.09 141.156 187.778 140.37 187.778H138.889C138.103 187.778 137.349 187.466 136.794 186.91C136.238 186.354 135.926 185.601 135.926 184.815V183.333C135.926 182.547 136.238 181.794 136.794 181.238C137.349 180.682 138.103 180.37 138.889 180.37H147.778C148.563 180.37 149.317 180.058 149.873 179.503C150.428 178.947 150.741 178.193 150.741 177.407V175.926ZM121.111 183.333C121.111 182.547 121.423 181.794 121.979 181.238C122.534 180.682 123.288 180.37 124.074 180.37H125.555C126.341 180.37 127.095 180.682 127.651 181.238C128.206 181.794 128.518 182.547 128.518 183.333V192.222C128.518 193.008 128.206 193.762 127.651 194.317C127.095 194.873 126.341 195.185 125.555 195.185H109.259C108.473 195.185 107.72 195.497 107.164 196.053C106.608 196.609 106.296 197.362 106.296 198.148V199.63C106.296 200.415 105.984 201.169 105.428 201.725C104.873 202.28 104.119 202.593 103.333 202.593H101.852C101.066 202.593 100.312 202.28 99.7565 201.725C99.2009 201.169 98.8887 200.415 98.8887 199.63V190.741C98.8887 189.955 99.2009 189.201 99.7565 188.646C100.312 188.09 101.066 187.778 101.852 187.778H118.148C118.934 187.778 119.687 187.466 120.243 186.91C120.799 186.354 121.111 185.601 121.111 184.815V183.333Z" fill="#344054"/>
<path fill-rule="evenodd" clip-rule="evenodd" d="M25.185 17.4073H61.4813C63.5441 17.4073 65.5224 18.2268 66.981 19.6854C68.4396 21.144 69.2591 23.1223 69.2591 25.1851V61.4814C69.2591 63.5442 68.4396 65.5225 66.981 66.9811C65.5224 68.4398 63.5441 69.2592 61.4813 69.2592H25.185C23.1222 69.2592 21.1439 68.4398 19.6853 66.9811C18.2267 65.5225 17.4072 63.5442 17.4072 61.4814V25.1851C17.4072 23.1223 18.2267 21.144 19.6853 19.6854C21.1439 18.2268 23.1222 17.4073 25.185 17.4073V17.4073ZM30.3702 24.8148H56.2961C57.7695 24.8148 59.1826 25.4001 60.2245 26.4419C61.2664 27.4838 61.8517 28.8969 61.8517 30.3703V56.2962C61.8517 57.7697 61.2664 59.1827 60.2245 60.2246C59.1826 61.2665 57.7695 61.8518 56.2961 61.8518H30.3702C28.8968 61.8518 27.4837 61.2665 26.4418 60.2246C25.4 59.1827 24.8146 57.7697 24.8146 56.2962V30.3703C24.8146 28.8969 25.4 27.4838 26.4418 26.4419C27.4837 25.4001 28.8968 24.8148 30.3702 24.8148ZM35.5554 32.2222H51.1109C51.5487 32.2222 51.9821 32.3084 52.3865 32.4759C52.791 32.6434 53.1584 32.8889 53.468 33.1985C53.7775 33.508 54.023 33.8755 54.1905 34.2799C54.3581 34.6843 54.4443 35.1178 54.4443 35.5555V51.1111C54.4443 51.5488 54.3581 51.9823 54.1905 52.3867C54.023 52.7911 53.7775 53.1586 53.468 53.4681C53.1584 53.7776 52.791 54.0231 52.3865 54.1907C51.9821 54.3582 51.5487 54.4444 51.1109 54.4444H35.5554C35.1176 54.4444 34.6842 54.3582 34.2798 54.1907C33.8753 54.0231 33.5079 53.7776 33.1984 53.4681C32.8888 53.1586 32.6433 52.7911 32.4758 52.3867C32.3083 51.9823 32.222 51.5488 32.222 51.1111V35.5555C32.222 35.1178 32.3083 34.6843 32.4758 34.2799C32.6433 33.8755 32.8888 33.508 33.1984 33.1985C33.5079 32.8889 33.8753 32.6434 34.2798 32.4759C34.6842 32.3084 35.1176 32.2222 35.5554 32.2222ZM158.518 17.4073H194.815C196.877 17.4073 198.856 18.2268 200.314 19.6854C201.773 21.144 202.592 23.1223 202.592 25.1851V61.4814C202.592 63.5442 201.773 65.5225 200.314 66.9811C198.856 68.4398 196.877 69.2592 194.815 69.2592H158.518C156.456 69.2592 154.477 68.4398 153.019 66.9811C151.56 65.5225 150.741 63.5442 150.741 61.4814V25.1851C150.741 23.1223 151.56 21.144 153.019 19.6854C154.477 18.2268 156.456 17.4073 158.518 17.4073V17.4073ZM163.704 24.8148H189.629C191.103 24.8148 192.516 25.4001 193.558 26.4419C194.6 27.4838 195.185 28.8969 195.185 30.3703V56.2962C195.185 57.7697 194.6 59.1827 193.558 60.2246C192.516 61.2665 191.103 61.8518 189.629 61.8518H163.704C162.23 61.8518 160.817 61.2665 159.775 60.2246C158.733 59.1827 158.148 57.7697 158.148 56.2962V30.3703C158.148 28.8969 158.733 27.4838 159.775 26.4419C160.817 25.4001 162.23 24.8148 163.704 24.8148ZM168.889 32.2222H184.444C185.328 32.2222 186.176 32.5734 186.801 33.1985C187.426 33.8236 187.778 34.6714 187.778 35.5555V51.1111C187.778 51.5488 187.691 51.9823 187.524 52.3867C187.356 52.7911 187.111 53.1586 186.801 53.4681C186.492 53.7776 186.124 54.0231 185.72 54.1907C185.315 54.3582 184.882 54.4444 184.444 54.4444H168.889C168.451 54.4444 168.018 54.3582 167.613 54.1907C167.209 54.0231 166.841 53.7776 166.532 53.4681C166.222 53.1586 165.977 52.7911 165.809 52.3867C165.642 51.9823 165.555 51.5488 165.555 51.1111V35.5555C165.555 34.6714 165.907 33.8236 166.532 33.1985C167.157 32.5734 168.005 32.2222 168.889 32.2222ZM25.185 150.741H61.4813C63.5441 150.741 65.5224 151.56 66.981 153.019C68.4396 154.477 69.2591 156.456 69.2591 158.518V194.815C69.2591 196.878 68.4396 198.856 66.981 200.314C65.5224 201.773 63.5441 202.593 61.4813 202.593H25.185C23.1222 202.593 21.1439 201.773 19.6853 200.314C18.2267 198.856 17.4072 196.878 17.4072 194.815V158.518C17.4072 156.456 18.2267 154.477 19.6853 153.019C21.1439 151.56 23.1222 150.741 25.185 150.741ZM30.3702 158.148H56.2961C57.7695 158.148 59.1826 158.733 60.2245 159.775C61.2664 160.817 61.8517 162.23 61.8517 163.704V189.63C61.8517 191.103 61.2664 192.516 60.2245 193.558C59.1826 194.6 57.7695 195.185 56.2961 195.185H30.3702C28.8968 195.185 27.4837 194.6 26.4418 193.558C25.4 192.516 24.8146 191.103 24.8146 189.63V163.704C24.8146 162.23 25.4 160.817 26.4418 159.775C27.4837 158.733 28.8968 158.148 30.3702 158.148ZM35.5554 165.556H51.1109C51.5487 165.556 51.9821 165.642 52.3865 165.809C52.791 165.977 53.1584 166.222 53.468 166.532C53.7775 166.841 54.023 167.209 54.1905 167.613C54.3581 168.018 54.4443 168.451 54.4443 168.889V184.444C54.4443 184.882 54.3581 185.316 54.1905 185.72C54.023 186.124 53.7775 186.492 53.468 186.801C53.1584 187.111 52.791 187.356 52.3865 187.524C51.9821 187.692 51.5487 187.778 51.1109 187.778H35.5554C34.6713 187.778 33.8235 187.427 33.1984 186.801C32.5732 186.176 32.222 185.328 32.222 184.444V168.889C32.222 168.451 32.3083 168.018 32.4758 167.613C32.6433 167.209 32.8888 166.841 33.1984 166.532C33.5079 166.222 33.8753 165.977 34.2798 165.809C34.6842 165.642 35.1176 165.556 35.5554 165.556ZM141.481 135.926H167.407C168.881 135.926 170.294 136.511 171.336 137.553C172.377 138.595 172.963 140.008 172.963 141.481V167.407C172.963 168.881 172.377 170.294 171.336 171.336C170.294 172.378 168.881 172.963 167.407 172.963H141.481C140.008 172.963 138.595 172.378 137.553 171.336C136.511 170.294 135.926 168.881 135.926 167.407V141.481C135.926 140.008 136.511 138.595 137.553 137.553C138.595 136.511 140.008 135.926 141.481 135.926ZM146.667 143.333H162.222C163.106 143.333 163.954 143.684 164.579 144.31C165.204 144.935 165.555 145.783 165.555 146.667V162.222C165.555 163.106 165.204 163.954 164.579 164.579C163.954 165.204 163.106 165.556 162.222 165.556H146.667C145.782 165.556 144.935 165.204 144.309 164.579C143.684 163.954 143.333 163.106 143.333 162.222V146.667C143.333 145.783 143.684 144.935 144.309 144.31C144.935 143.684 145.782 143.333 146.667 143.333ZM151.852 150.741H157.037C157.332 150.741 157.614 150.858 157.823 151.066C158.031 151.275 158.148 151.557 158.148 151.852V157.037C158.148 157.332 158.031 157.614 157.823 157.823C157.614 158.031 157.332 158.148 157.037 158.148H151.852C151.557 158.148 151.274 158.031 151.066 157.823C150.858 157.614 150.741 157.332 150.741 157.037V151.852C150.741 151.557 150.858 151.275 151.066 151.066C151.274 150.858 151.557 150.741 151.852 150.741Z" fill="#36BFFA"/>
</svg>
