<svg width="20" height="20" viewBox="0 0 20 20" fill="none" xmlns="http://www.w3.org/2000/svg">
<path fill-rule="evenodd" clip-rule="evenodd" d="M9.58333 17.5H10.4167C13.5594 17.5 15.1307 17.5 16.107 16.5237C17.0833 15.5474 17.0833 13.976 17.0833 10.8333V5.8317C16.9623 5.83339 16.7925 5.83336 16.6667 5.83334H3.33333C3.20754 5.83336 3.03767 5.83339 2.91667 5.8317V10.8333C2.91667 13.976 2.91667 15.5474 3.89298 16.5237C4.86929 17.5 6.44064 17.5 9.58333 17.5ZM12.5496 9.58292C12.7794 9.32544 12.7571 8.93035 12.4996 8.70045C12.2421 8.47056 11.847 8.49292 11.6171 8.7504L9.10715 11.5616L8.38288 10.7504C8.15299 10.4929 7.75789 10.4706 7.50041 10.7005C7.24293 10.9303 7.22057 11.3254 7.45046 11.5829L8.64094 12.9163C8.75952 13.0491 8.92911 13.125 9.10715 13.125C9.28519 13.125 9.45478 13.0491 9.57336 12.9163L12.5496 9.58292Z" fill="#E0F2FE"/>
<path opacity="0.5" d="M0 4.16667C0 3.38099 0 2.98816 0.292893 2.74408C0.585786 2.5 1.05719 2.5 2 2.5H18C18.9428 2.5 19.4142 2.5 19.7071 2.74408C20 2.98816 20 3.38099 20 4.16667C20 4.95234 20 5.34518 19.7071 5.58926C19.4142 5.83333 18.9428 5.83333 18 5.83333H2C1.05719 5.83333 0.585786 5.83333 0.292893 5.58926C0 5.34518 0 4.95234 0 4.16667Z" fill="#E0F2FE"/>
</svg>
