<svg width="24" height="24" viewBox="0 0 24 24" fill="none" xmlns="http://www.w3.org/2000/svg">
<path d="M20.5 19H3.5C2.67157 19 2 19.6716 2 20.5C2 21.3284 2.67157 22 3.5 22H20.5C21.3284 22 22 21.3284 22 20.5C22 19.6716 21.3284 19 20.5 19Z" stroke="white" stroke-width="1.5" stroke-miterlimit="10" stroke-linecap="round" stroke-linejoin="round"/>
<path d="M22 6.39682C22 7.28223 21.2822 8 20.3968 8H3.60317C2.71777 8 2 7.28223 2 6.39682V6.39682C2 5.70126 2.44853 5.08504 3.11043 4.87125L11.3853 2.19855C11.7849 2.06947 12.2151 2.06947 12.6147 2.19855L20.8896 4.87125C21.5515 5.08504 22 5.70126 22 6.39682V6.39682Z" stroke="white" stroke-width="1.5" stroke-miterlimit="10" stroke-linecap="round" stroke-linejoin="round"/>
<path opacity="0.5" d="M14 5H10" stroke="white" stroke-width="1.5" stroke-miterlimit="10" stroke-linecap="round" stroke-linejoin="round"/>
<path opacity="0.5" d="M9.95053 19V17.778L10.7445 16.5558H13.2538L14.0477 17.778V19M14.0477 8V9.22201L13.2538 10.4442H10.7445L9.95053 9.22201V8M13.2547 10.4451V16.5559M10.7454 16.5559V10.4451M3 19V17.778L3.7939 16.5558M3.7939 16.5558H6.30322M3.7939 16.5558L3.79307 10.4451M6.30322 16.5558L7.09717 17.778V19M6.30322 16.5558L6.30239 10.4451M7.09717 8V9.22201L6.30322 10.4442H3.7939L3 9.22201V8M16.9028 19V17.778L17.6968 16.5558H20.2061L21 17.778V19M21 8V9.22201L20.2061 10.4442H17.6968L16.9028 9.22201V8M20.207 10.4451V16.5559M17.6977 16.5559V10.4451" stroke="white" stroke-width="1.5" stroke-miterlimit="10" stroke-linecap="round" stroke-linejoin="round"/>
</svg>
