<svg width="20" height="20" viewBox="0 0 20 20" fill="none" xmlns="http://www.w3.org/2000/svg">
<path opacity="0.5" d="M15.6243 7.5V8.08675C15.6243 8.79091 15.8252 9.47931 16.2018 10.0652L17.1247 11.501C17.9676 12.8124 17.3241 14.5949 15.858 15.0096C12.0227 16.0945 7.97728 16.0945 4.14197 15.0096C2.67587 14.5949 2.03235 12.8124 2.8753 11.501L3.79816 10.0652C4.17476 9.47931 4.37573 8.79091 4.37573 8.08675V7.5C4.37573 4.27834 6.8938 1.66666 10 1.66666C13.1062 1.66666 15.6243 4.27834 15.6243 7.5Z" fill="white"/>
<path d="M10.625 5C10.625 4.65482 10.3452 4.375 10 4.375C9.65482 4.375 9.375 4.65482 9.375 5V8.33333C9.375 8.67851 9.65482 8.95833 10 8.95833C10.3452 8.95833 10.625 8.67851 10.625 8.33333V5Z" fill="white"/>
<path d="M6.03601 15.4541C6.57846 17.1251 8.1481 18.3331 9.99989 18.3331C11.8517 18.3331 13.4213 17.1251 13.9638 15.4541C11.3426 15.946 8.65721 15.946 6.03601 15.4541Z" fill="white"/>
</svg>
