<svg width="48" height="48" viewBox="0 0 48 48" fill="none" xmlns="http://www.w3.org/2000/svg">
<rect width="48" height="48" rx="24" fill="#DCDAFA"/>
<g clip-path="url(#clip0_1_6475)">
<path d="M24 36C30.6274 36 36 33.0153 36 29.3334C36 25.6515 30.6274 22.6667 24 22.6667C17.3726 22.6667 12 25.6515 12 29.3334C12 33.0153 17.3726 36 24 36Z" fill="#8899A6"/>
<path d="M24 34.8333C30.6274 34.8333 36 31.8486 36 28.1667C36 24.4848 30.6274 21.5 24 21.5C17.3726 21.5 12 24.4848 12 28.1667C12 31.8486 17.3726 34.8333 24 34.8333Z" fill="#CCD6DD"/>
<path d="M33.7833 27.79C33.7833 30.63 29.4033 32.9314 24 32.9314C18.5967 32.9314 14.2167 30.63 14.2167 27.79C14.2167 24.9514 18.5967 22.6494 24 22.6494C29.4027 22.6494 33.7833 24.9514 33.7833 27.79Z" fill="#DD2E44"/>
<path d="M33.4887 27.0287C33.4887 33.598 14.5114 33.598 14.5114 27.0287V21.1893H33.4887V27.0287Z" fill="#F4ABBA"/>
<path d="M23.9893 24.1107C18 24.1107 14.5107 21.356 14.5107 21.356C14.5107 21.356 14.5 21.972 14.5 22.4794C14.5 22.4794 14.5213 25.7447 16.2147 25.7447C17.854 25.7447 17.7347 27.31 18.7707 27.472C19.798 27.6327 19.912 26.8467 21.1873 26.8467C22.4627 26.8467 22.6873 28.2507 23.9893 28.2507C25.5153 28.2507 25.6407 26.8467 26.9153 26.8467C28.19 26.8467 28.3367 27.6627 29.1727 27.4367C30.1773 27.1647 29.7153 25.7454 31.764 25.7454C33.4573 25.7454 33.4993 22.6467 33.4993 22.6467C33.4993 22.14 33.488 21.3567 33.488 21.3567C33.488 21.3567 29.9793 24.1107 23.9893 24.1107Z" fill="#DD2E44"/>
<path d="M33.7833 20.4913C33.7833 23.3306 29.4033 25.6326 24 25.6326C18.5967 25.6326 14.2167 23.3306 14.2167 20.4913C14.2167 17.652 18.5967 15.35 24 15.35C29.4027 15.35 33.7833 17.652 33.7833 20.4913Z" fill="#EA596E"/>
<path d="M29.1094 21.1893C28.7061 21.1893 28.3794 20.8627 28.3794 20.4593V15.35C28.3794 15.1564 28.4563 14.9707 28.5932 14.8338C28.7301 14.6969 28.9158 14.62 29.1094 14.62C29.303 14.62 29.4887 14.6969 29.6256 14.8338C29.7625 14.9707 29.8394 15.1564 29.8394 15.35V20.4593C29.8394 20.8627 29.5127 21.1893 29.1094 21.1893Z" fill="#FFF8E8"/>
<path d="M29.1093 16.4447C28.3347 16.4447 27.7253 16.09 27.4793 15.496C27.266 14.9807 27.16 13.8627 28.8513 12.172C28.8852 12.1381 28.9254 12.1112 28.9697 12.0929C29.014 12.0745 29.0614 12.0651 29.1093 12.0651C29.1573 12.0651 29.2047 12.0745 29.249 12.0929C29.2933 12.1112 29.3335 12.1381 29.3673 12.172C31.0587 13.8633 30.9527 14.9807 30.7393 15.496C30.4933 16.09 29.884 16.4447 29.1093 16.4447Z" fill="#FAAA35"/>
<path d="M24 23.3787C23.5967 23.3787 23.27 23.052 23.27 22.6487V17.54C23.27 17.4441 23.2889 17.3492 23.3256 17.2606C23.3623 17.1721 23.416 17.0916 23.4838 17.0238C23.5516 16.956 23.6321 16.9023 23.7207 16.8656C23.8092 16.8289 23.9042 16.81 24 16.81C24.0959 16.81 24.1908 16.8289 24.2794 16.8656C24.3679 16.9023 24.4484 16.956 24.5162 17.0238C24.584 17.0916 24.6378 17.1721 24.6745 17.2606C24.7111 17.3492 24.73 17.4441 24.73 17.54V22.6493C24.73 23.052 24.4034 23.3787 24 23.3787Z" fill="#FFF8E8"/>
<path d="M24 18.6347C23.2253 18.6347 22.616 18.28 22.37 17.686C22.156 17.1707 22.0507 16.0527 23.742 14.362C23.7759 14.3281 23.8161 14.3012 23.8604 14.2829C23.9046 14.2645 23.9521 14.2551 24 14.2551C24.0479 14.2551 24.0954 14.2645 24.1397 14.2829C24.1839 14.3012 24.2241 14.3281 24.258 14.362C25.9493 16.0533 25.8433 17.1707 25.63 17.686C25.384 18.28 24.7747 18.6347 24 18.6347Z" fill="#FAAA35"/>
<path d="M18.8906 21.1893C18.4873 21.1893 18.1606 20.8627 18.1606 20.4593V15.35C18.1606 15.2541 18.1795 15.1592 18.2162 15.0706C18.2529 14.9821 18.3067 14.9016 18.3745 14.8338C18.4422 14.766 18.5227 14.7122 18.6113 14.6756C18.6999 14.6389 18.7948 14.62 18.8906 14.62C18.9865 14.62 19.0814 14.6389 19.17 14.6756C19.2586 14.7122 19.339 14.766 19.4068 14.8338C19.4746 14.9016 19.5284 14.9821 19.5651 15.0706C19.6018 15.1592 19.6206 15.2541 19.6206 15.35V20.4593C19.6206 20.8627 19.294 21.1893 18.8906 21.1893Z" fill="#FFF8E8"/>
<path d="M18.8906 16.4447C18.116 16.4447 17.5066 16.09 17.2606 15.496C17.0466 14.9807 16.9413 13.8627 18.6326 12.172C18.6665 12.1381 18.7067 12.1112 18.751 12.0929C18.7953 12.0745 18.8427 12.0651 18.8906 12.0651C18.9386 12.0651 18.986 12.0745 19.0303 12.0929C19.0746 12.1112 19.1148 12.1381 19.1486 12.172C20.84 13.8633 20.734 14.9807 20.5206 15.496C20.2746 16.09 19.6653 16.4447 18.8906 16.4447Z" fill="#FAAA35"/>
</g>
<defs>
<clipPath id="clip0_1_6475">
<rect width="24" height="24" fill="white" transform="translate(12 12)"/>
</clipPath>
</defs>
</svg>
