<svg width="20" height="20" viewBox="0 0 20 20" fill="none" xmlns="http://www.w3.org/2000/svg">
<path d="M5.80001 1.66666C6.14794 1.66666 6.43 1.92496 6.43 2.24359V3.40736C6.98881 3.39743 7.61518 3.39743 8.31995 3.39743H8.31998H11.6799H11.68C12.3847 3.39743 13.0111 3.39743 13.5699 3.40736V2.24359C13.5699 1.92496 13.852 1.66666 14.1999 1.66666C14.5479 1.66666 14.8299 1.92496 14.8299 2.24359V3.4584C16.0389 3.54706 16.8326 3.76464 17.4158 4.29864C17.9989 4.83264 18.2365 5.55949 18.3333 6.66666V7.5H1.66663V6.66666C1.76344 5.55949 2.00104 4.83264 2.58416 4.29864C3.16728 3.76464 3.96099 3.54706 5.17001 3.4584V2.24359C5.17001 1.92496 5.45207 1.66666 5.80001 1.66666Z" fill="white"/>
<path opacity="0.5" d="M18.3333 11.6667V10C18.3333 9.3008 18.3227 8.05439 18.312 7.5H1.67151C1.66076 8.05439 1.67133 9.3008 1.67133 10V11.6667C1.67133 14.8094 1.67133 16.3807 2.64736 17.357C3.6234 18.3333 5.1943 18.3333 8.33611 18.3333H11.6685C14.8103 18.3333 16.3812 18.3333 17.3573 17.357C18.3333 16.3807 18.3333 14.8094 18.3333 11.6667Z" fill="white"/>
<path d="M15 13.75C15 14.4404 14.4404 15 13.75 15C13.0596 15 12.5 14.4404 12.5 13.75C12.5 13.0596 13.0596 12.5 13.75 12.5C14.4404 12.5 15 13.0596 15 13.75Z" fill="white"/>
</svg>
