<svg width="20" height="20" viewBox="0 0 20 20" fill="none" xmlns="http://www.w3.org/2000/svg">
<path opacity="0.5" d="M8.33333 16.6666H11.3555C10.7676 15.9217 10.4167 14.981 10.4167 13.9583C10.4167 11.5421 12.3754 9.58331 14.7917 9.58331C16.2456 9.58331 17.5339 10.2925 18.3294 11.3839C18.3333 10.9597 18.3333 10.4997 18.3333 9.99998C18.3333 9.6317 18.3333 8.66 18.3318 8.33331H1.66824C1.66667 8.66 1.66667 9.6317 1.66667 9.99998C1.66667 13.1427 1.66667 14.714 2.64298 15.6903C3.61929 16.6666 5.19064 16.6666 8.33333 16.6666Z" fill="#E0F2FE"/>
<path d="M4.375 13.3333C4.375 12.9881 4.65482 12.7083 5 12.7083H8.33333C8.67851 12.7083 8.95833 12.9881 8.95833 13.3333C8.95833 13.6785 8.67851 13.9583 8.33333 13.9583H5C4.65482 13.9583 4.375 13.6785 4.375 13.3333Z" fill="#E0F2FE"/>
<path fill-rule="evenodd" clip-rule="evenodd" d="M14.7917 12.0833C13.7561 12.0833 12.9167 12.9228 12.9167 13.9583C12.9167 14.9938 13.7561 15.8333 14.7917 15.8333C15.8272 15.8333 16.6667 14.9938 16.6667 13.9583C16.6667 12.9228 15.8272 12.0833 14.7917 12.0833ZM11.6667 13.9583C11.6667 12.2324 13.0658 10.8333 14.7917 10.8333C16.5176 10.8333 17.9167 12.2324 17.9167 13.9583C17.9167 14.5952 17.7261 15.1877 17.3989 15.6817L18.1503 16.433C18.3944 16.6771 18.3944 17.0728 18.1503 17.3169C17.9062 17.561 17.5105 17.561 17.2664 17.3169L16.515 16.5656C16.021 16.8928 15.4286 17.0833 14.7917 17.0833C13.0658 17.0833 11.6667 15.6842 11.6667 13.9583Z" fill="#E0F2FE"/>
<path d="M8.32904 3.33331H11.671C14.8218 3.33331 16.3972 3.33331 17.376 4.26313C18.0808 4.93261 18.2781 5.89587 18.3333 7.49998V8.33331H1.66667V7.49998C1.72192 5.89587 1.91925 4.93261 2.62401 4.26313C3.60284 3.33331 5.17824 3.33331 8.32904 3.33331Z" fill="#E0F2FE"/>
</svg>
