<svg width="20" height="20" viewBox="0 0 20 20" fill="none" xmlns="http://www.w3.org/2000/svg">
<path opacity="0.5" d="M10 18.3333C14.6024 18.3333 18.3334 14.6024 18.3334 9.99999C18.3334 5.39762 14.6024 1.66666 10 1.66666C5.39767 1.66666 1.66671 5.39762 1.66671 9.99999C1.66671 11.3331 1.97972 12.593 2.53626 13.7104C2.68415 14.0073 2.73338 14.3467 2.64764 14.6672L2.1513 16.5222C1.93583 17.3275 2.67255 18.0642 3.47783 17.8487L5.33286 17.3524C5.65332 17.2666 5.99271 17.3159 6.28965 17.4638C7.40701 18.0203 8.66697 18.3333 10 18.3333Z" fill="white"/>
<path d="M6.52087 10.7083C6.14118 10.7083 5.83337 11.0161 5.83337 11.3958C5.83337 11.7755 6.14118 12.0833 6.52087 12.0833H11.5625C11.9422 12.0833 12.25 11.7755 12.25 11.3958C12.25 11.0161 11.9422 10.7083 11.5625 10.7083H6.52087Z" fill="white"/>
<path d="M6.52087 7.5C6.14118 7.5 5.83337 7.8078 5.83337 8.1875C5.83337 8.5672 6.14118 8.875 6.52087 8.875H13.8542C14.2339 8.875 14.5417 8.5672 14.5417 8.1875C14.5417 7.8078 14.2339 7.5 13.8542 7.5H6.52087Z" fill="white"/>
</svg>
