<svg width="20" height="20" viewBox="0 0 20 20" fill="none" xmlns="http://www.w3.org/2000/svg">
<path opacity="0.5" d="M17.5 13.3319V8.33188C17.5 5.97486 17.5 4.79635 16.7678 4.06411C16.1274 3.42379 15.1459 3.34342 13.3333 3.33333H6.66667C4.85414 3.34342 3.87255 3.42379 3.23223 4.06411C2.5 4.79635 2.5 5.97486 2.5 8.33188V13.3319C2.5 15.6889 2.5 16.8674 3.23223 17.5996C3.96447 18.3319 5.14298 18.3319 7.5 18.3319H12.5C14.857 18.3319 16.0355 18.3319 16.7678 17.5996C17.5 16.8674 17.5 15.6889 17.5 13.3319Z" fill="white"/>
<path d="M6.66663 2.91667C6.66663 2.22632 7.22627 1.66667 7.91663 1.66667H12.0833C12.7736 1.66667 13.3333 2.22632 13.3333 2.91667V3.75001C13.3333 4.44036 12.7736 5.00001 12.0833 5.00001H7.91663C7.22627 5.00001 6.66663 4.44036 6.66663 3.75001V2.91667Z" fill="white"/>
<path fill-rule="evenodd" clip-rule="evenodd" d="M5.20837 8.75C5.20837 8.40482 5.4882 8.125 5.83337 8.125H14.1667C14.5119 8.125 14.7917 8.40482 14.7917 8.75C14.7917 9.09518 14.5119 9.375 14.1667 9.375H5.83337C5.4882 9.375 5.20837 9.09518 5.20837 8.75ZM6.04171 11.6667C6.04171 11.3215 6.32153 11.0417 6.66671 11.0417H13.3334C13.6786 11.0417 13.9584 11.3215 13.9584 11.6667C13.9584 12.0118 13.6786 12.2917 13.3334 12.2917H6.66671C6.32153 12.2917 6.04171 12.0118 6.04171 11.6667ZM6.87504 14.5833C6.87504 14.2382 7.15486 13.9583 7.50004 13.9583H12.5C12.8452 13.9583 13.125 14.2382 13.125 14.5833C13.125 14.9285 12.8452 15.2083 12.5 15.2083H7.50004C7.15486 15.2083 6.87504 14.9285 6.87504 14.5833Z" fill="white"/>
</svg>
