<svg width="48" height="48" viewBox="0 0 48 48" fill="none" xmlns="http://www.w3.org/2000/svg">
<rect width="48" height="48" rx="24" fill="#D9D6FE"/>
<path opacity="0.5" d="M24 14L24 22M24 22L27 19M24 22L21 19" stroke="#3E1C96" stroke-width="1.5" stroke-linecap="round" stroke-linejoin="round"/>
<path opacity="0.5" d="M14 25H17.1603C18.0654 25 18.518 25 18.9158 25.183C19.3137 25.3659 19.6082 25.7096 20.1973 26.3968L20.8027 27.1032C21.3918 27.7904 21.6863 28.1341 22.0842 28.317C22.482 28.5 22.9346 28.5 23.8397 28.5H24.1603C25.0654 28.5 25.518 28.5 25.9158 28.317C26.3137 28.1341 26.6082 27.7904 27.1973 27.1032L27.8027 26.3968C28.3918 25.7096 28.6863 25.3659 29.0842 25.183C29.482 25 29.9346 25 30.8397 25H34" stroke="#3E1C96" stroke-width="1.5" stroke-linecap="round"/>
<path d="M29 14.127C30.6251 14.2868 31.7191 14.6481 32.5355 15.4646C34 16.929 34 19.286 34 24.0001C34 28.7141 34 31.0712 32.5355 32.5356C31.0711 34.0001 28.714 34.0001 24 34.0001C19.286 34.0001 16.9289 34.0001 15.4645 32.5356C14 31.0712 14 28.7141 14 24.0001C14 19.286 14 16.929 15.4645 15.4646C16.2809 14.6481 17.3749 14.2868 19 14.127" stroke="#3E1C96" stroke-width="1.5" stroke-linecap="round"/>
</svg>
