<svg width="32" height="32" viewBox="0 0 32 32" fill="none" xmlns="http://www.w3.org/2000/svg">
<path opacity="0.5" d="M2.66663 16C2.66663 18.1858 3.23325 18.922 4.36648 20.3942C6.62925 23.3339 10.4241 26.6667 16 26.6667C21.5758 26.6667 25.3707 23.3339 27.6334 20.3942C28.7667 18.922 29.3333 18.1858 29.3333 16C29.3333 13.8142 28.7667 13.078 27.6334 11.6058C25.3707 8.66608 21.5758 5.33333 16 5.33333C10.4241 5.33333 6.62924 8.66608 4.36648 11.6058C3.23325 13.078 2.66663 13.8142 2.66663 16Z" fill="white"/>
<path fill-rule="evenodd" clip-rule="evenodd" d="M11 16C11 13.2386 13.2386 11 16 11C18.7614 11 21 13.2386 21 16C21 18.7614 18.7614 21 16 21C13.2386 21 11 18.7614 11 16ZM13 16C13 14.3431 14.3431 13 16 13C17.6569 13 19 14.3431 19 16C19 17.6569 17.6569 19 16 19C14.3431 19 13 17.6569 13 16Z" fill="white"/>
</svg>
