<svg width="32" height="32" viewBox="0 0 32 32" fill="none" xmlns="http://www.w3.org/2000/svg">
<path d="M24 10.6667C24 12.1394 22.8061 13.3333 21.3333 13.3333C19.8605 13.3333 18.6666 12.1394 18.6666 10.6667C18.6666 9.19391 19.8605 8 21.3333 8C22.8061 8 24 9.19391 24 10.6667Z" fill="white"/>
<path fill-rule="evenodd" clip-rule="evenodd" d="M15.9235 1.66667H16.0765C19.1543 1.66665 21.5664 1.66664 23.4484 1.91966C25.3747 2.17865 26.8947 2.7191 28.0878 3.91218C29.2809 5.10526 29.8213 6.62529 30.0803 8.55161C30.3333 10.4336 30.3333 12.8456 30.3333 15.9235V16.0412C30.3333 18.5863 30.3333 20.6697 30.1951 22.3661C30.0562 24.0708 29.7715 25.4952 29.1345 26.6783C28.8535 27.2001 28.5082 27.6674 28.0878 28.0878C26.8947 29.2809 25.3747 29.8214 23.4484 30.0803C21.5664 30.3334 19.1543 30.3334 16.0765 30.3333H15.9235C12.8456 30.3334 10.4336 30.3334 8.55157 30.0803C6.62525 29.8214 5.10522 29.2809 3.91214 28.0878C2.85444 27.0301 2.30822 25.7136 2.01776 24.0806C1.73243 22.4763 1.68023 20.4804 1.66938 18.002C1.66663 17.3716 1.66663 16.7048 1.66663 16.0013L1.66663 15.9235C1.66661 12.8456 1.6666 10.4336 1.91962 8.55161C2.17861 6.62529 2.71906 5.10526 3.91214 3.91218C5.10522 2.7191 6.62525 2.17865 8.55157 1.91966C10.4335 1.66664 12.8456 1.66665 15.9235 1.66667ZM8.81806 3.90183C7.11352 4.131 6.0859 4.56685 5.32635 5.3264C4.56681 6.08594 4.13096 7.11357 3.90179 8.8181C3.66875 10.5514 3.66663 12.829 3.66663 16C3.66663 16.7049 3.66663 17.3676 3.66937 17.9932C3.6803 20.4921 3.73615 22.3208 3.98686 23.7303C4.23244 25.1111 4.65027 25.9975 5.32635 26.6736C6.0859 27.4331 7.11352 27.869 8.81806 28.0982C10.5514 28.3312 12.829 28.3333 16 28.3333C19.1709 28.3333 21.4486 28.3312 23.1819 28.0982C24.8864 27.869 25.914 27.4331 26.6736 26.6736C26.9535 26.3937 27.1829 26.0841 27.3736 25.7301C27.8158 24.9089 28.0708 23.8104 28.2017 22.2036C28.3325 20.5977 28.3333 18.5945 28.3333 16C28.3333 12.829 28.3312 10.5514 28.0981 8.8181C27.869 7.11357 27.4331 6.08594 26.6736 5.3264C25.914 4.56685 24.8864 4.131 23.1819 3.90183C21.4486 3.66879 19.1709 3.66667 16 3.66667C12.829 3.66667 10.5514 3.66879 8.81806 3.90183Z" fill="white"/>
<path opacity="0.4" d="M27.4757 25.5285L23.7018 22.1319C22.3158 20.8845 20.2516 20.7603 18.726 21.8325L18.3284 22.1119C17.2682 22.857 15.8258 22.7321 14.9095 21.8158L9.18983 16.0961C8.04822 14.9545 6.21699 14.8935 5.00196 15.9567L3.66711 17.1247C3.66749 17.422 3.66816 17.7114 3.6694 17.9932C3.68033 20.4921 3.73618 22.3208 3.98689 23.7303C4.23247 25.1111 4.65031 25.9975 5.32639 26.6736C6.08593 27.4331 7.11356 27.869 8.81809 28.0982C10.5514 28.3312 12.829 28.3333 16 28.3333C19.171 28.3333 21.4486 28.3312 23.1819 28.0982C24.8864 27.869 25.9141 27.4331 26.6736 26.6736C26.9535 26.3937 27.1829 26.0841 27.3736 25.7301C27.4088 25.6647 27.4428 25.5975 27.4757 25.5285Z" fill="white"/>
</svg>
