<svg width="20" height="20" viewBox="0 0 20 20" fill="none" xmlns="http://www.w3.org/2000/svg">
<path opacity="0.5" d="M1.66667 10C1.66667 6.07165 1.66667 4.10746 2.88705 2.88708C4.10744 1.66669 6.07163 1.66669 10 1.66669C13.9284 1.66669 15.8926 1.66669 17.1129 2.88708C18.3333 4.10746 18.3333 6.07165 18.3333 10C18.3333 13.9284 18.3333 15.8926 17.1129 17.113C15.8926 18.3334 13.9284 18.3334 10 18.3334C6.07163 18.3334 4.10744 18.3334 2.88705 17.113C1.66667 15.8926 1.66667 13.9284 1.66667 10Z" fill="#E0F2FE"/>
<path d="M14.6468 8.73344C14.8678 8.46827 14.832 8.07417 14.5668 7.85319C14.3016 7.63221 13.9075 7.66804 13.6865 7.93321L12.1891 9.7301C11.8801 10.1009 11.6904 10.3262 11.5341 10.4674C11.4616 10.5329 11.4186 10.559 11.398 10.5689C11.3938 10.571 11.3908 10.5722 11.3889 10.5729C11.3889 10.5729 11.3853 10.5715 11.3825 10.5702L11.3799 10.5689C11.3592 10.559 11.3162 10.5329 11.2437 10.4674C11.0874 10.3262 10.8977 10.1009 10.5887 9.7301L10.345 9.4377L10.345 9.4377C10.0713 9.10917 9.82453 8.81299 9.59404 8.60486C9.34325 8.3784 9.02737 8.1767 8.61113 8.1767C8.19489 8.1767 7.879 8.3784 7.62822 8.60486C7.39772 8.81299 7.15096 9.10917 6.87724 9.43771L5.35321 11.2665C5.13223 11.5317 5.16806 11.9258 5.43323 12.1468C5.69841 12.3678 6.09251 12.332 6.31349 12.0668L7.8109 10.2699C8.11989 9.89909 8.30964 9.67374 8.46596 9.53259C8.53846 9.46712 8.58146 9.44103 8.60207 9.43106L8.60771 9.42848L8.61113 9.42711C8.61301 9.42781 8.616 9.42903 8.62018 9.43106C8.6408 9.44103 8.6838 9.46712 8.75629 9.53259C8.91261 9.67374 9.10236 9.89909 9.41136 10.2699L9.65502 10.5623L9.65503 10.5623C9.92875 10.8908 10.1755 11.187 10.406 11.3951C10.6568 11.6216 10.9727 11.8233 11.3889 11.8233C11.8051 11.8233 12.121 11.6216 12.3718 11.3951C12.6023 11.187 12.8491 10.8908 13.1228 10.5623L14.6468 8.73344Z" fill="#E0F2FE"/>
<path d="M18.3333 4.16669C18.3333 5.5474 17.214 6.66669 15.8333 6.66669C14.4526 6.66669 13.3333 5.5474 13.3333 4.16669C13.3333 2.78598 14.4526 1.66669 15.8333 1.66669C17.214 1.66669 18.3333 2.78598 18.3333 4.16669Z" fill="#E0F2FE"/>
</svg>
