<svg width="20" height="20" viewBox="0 0 20 20" fill="none" xmlns="http://www.w3.org/2000/svg">
<path opacity="0.5" d="M10.9217 18.3333H9.07827C6.20614 18.3333 4.77008 18.3333 3.79086 17.4902C2.81164 16.647 2.60854 15.2355 2.20236 12.4127L1.97006 10.7982C1.65386 8.60068 1.49575 7.50191 1.94614 6.56246C2.39652 5.62301 3.35516 5.05195 5.27243 3.90985L6.42646 3.2224C8.16754 2.18525 9.03807 1.66667 10 1.66667C10.9619 1.66667 11.8325 2.18525 13.5735 3.2224L14.7276 3.90985C16.6448 5.05195 17.6035 5.62301 18.0539 6.56246C18.5042 7.50191 18.3461 8.60069 18.0299 10.7982L17.7976 12.4127C17.3915 15.2356 17.1884 16.647 16.2091 17.4902C15.2299 18.3333 13.7939 18.3333 10.9217 18.3333Z" fill="#E0F2FE"/>
<path fill-rule="evenodd" clip-rule="evenodd" d="M10 15.625C9.65482 15.625 9.375 15.3452 9.375 15V12.5C9.375 12.1548 9.65482 11.875 10 11.875C10.3452 11.875 10.625 12.1548 10.625 12.5V15C10.625 15.3452 10.3452 15.625 10 15.625Z" fill="#E0F2FE"/>
</svg>
