<svg width="20" height="20" viewBox="0 0 20 20" fill="none" xmlns="http://www.w3.org/2000/svg">
<path opacity="0.5" d="M1.66667 9.99999C1.66667 6.07162 1.66667 4.10743 2.88705 2.88704C4.10744 1.66666 6.07163 1.66666 10 1.66666C13.9284 1.66666 15.8926 1.66666 17.1129 2.88704C18.3333 4.10743 18.3333 6.07162 18.3333 9.99999C18.3333 13.9284 18.3333 15.8925 17.1129 17.1129C15.8926 18.3333 13.9284 18.3333 10 18.3333C6.07163 18.3333 4.10744 18.3333 2.88705 17.1129C1.66667 15.8925 1.66667 13.9284 1.66667 9.99999Z" fill="#E0F2FE"/>
<path d="M2.88709 17.113C4.10751 18.3333 6.07176 18.3333 10.0002 18.3333C13.9287 18.3333 15.893 18.3333 17.1134 17.113C18.2443 15.9821 18.3272 14.2126 18.3333 10.8333H15.7002C14.9459 10.8333 14.5687 10.8333 14.2372 10.9858C13.9056 11.1383 13.6602 11.4247 13.1693 11.9974L12.6647 12.586C12.1738 13.1587 11.9284 13.4451 11.5968 13.5975C11.2653 13.75 10.8881 13.75 10.1338 13.75H9.86669C9.11236 13.75 8.73519 13.75 8.40366 13.5975C8.07213 13.4451 7.82667 13.1587 7.33576 12.586L6.83122 11.9974C6.34031 11.4247 6.09485 11.1383 5.76332 10.9858C5.43179 10.8333 5.05462 10.8333 4.30029 10.8333H1.66667C1.67275 14.2126 1.7562 15.9821 2.88709 17.113Z" fill="#E0F2FE"/>
<path d="M10.4421 9.44177C10.3249 9.55898 10.1659 9.62483 10.0002 9.62483C9.8344 9.62483 9.67543 9.55898 9.55822 9.44177L6.80822 6.69177C6.56414 6.44769 6.56414 6.05196 6.80822 5.80789C7.0523 5.56381 7.44803 5.56381 7.6921 5.80789L9.37516 7.49094L9.37516 1.66685C9.57774 1.66666 9.78595 1.66666 10 1.66666C10.2142 1.66666 10.4225 1.66666 10.6252 1.66685V7.49094L12.3082 5.80789C12.5523 5.56381 12.948 5.56381 13.1921 5.80789C13.4362 6.05196 13.4362 6.44769 13.1921 6.69177L10.4421 9.44177Z" fill="#E0F2FE"/>
</svg>
