<svg width="20" height="20" viewBox="0 0 20 20" fill="none" xmlns="http://www.w3.org/2000/svg">
<path d="M4.14902 8.07088C2.49412 7.40892 1.66667 7.07794 1.66667 6.66665C1.66667 6.25536 2.49412 5.92437 4.14902 5.26241L6.48941 4.32626C8.14432 3.66429 8.97177 3.33331 10 3.33331C11.0282 3.33331 11.8557 3.66429 13.5106 4.32626L15.851 5.26241C17.5059 5.92437 18.3333 6.25536 18.3333 6.66665C18.3333 7.07794 17.5059 7.40892 15.851 8.07088L13.5106 9.00704C11.8557 9.669 11.0282 9.99998 10 9.99998C8.97177 9.99998 8.14432 9.669 6.48941 9.00704L4.14902 8.07088Z" fill="#E0F2FE"/>
<path fill-rule="evenodd" clip-rule="evenodd" d="M1.66667 6.66665C1.66667 7.07794 2.49412 7.40892 4.14902 8.07088L6.48941 9.00704C8.14432 9.669 8.97177 9.99998 10 9.99998C11.0282 9.99998 11.8557 9.669 13.5106 9.00704L15.851 8.07088C17.5059 7.40892 18.3333 7.07794 18.3333 6.66665C18.3333 6.25536 17.5059 5.92437 15.851 5.26241L13.5106 4.32626C11.8557 3.66429 11.0282 3.33331 10 3.33331C8.97177 3.33331 8.14432 3.66429 6.48941 4.32626L4.14902 5.26241C2.49412 5.92437 1.66667 6.25536 1.66667 6.66665Z" fill="#E0F2FE"/>
<path opacity="0.7" d="M4.80511 8.33331L4.14902 8.59575C2.49412 9.25771 1.66667 9.58869 1.66667 9.99998C1.66667 10.4113 2.49412 10.7423 4.14902 11.4042L6.48941 12.3404C8.14432 13.0023 8.97177 13.3333 10 13.3333C11.0282 13.3333 11.8557 13.0023 13.5106 12.3404L15.851 11.4042C17.5059 10.7423 18.3333 10.4113 18.3333 9.99998C18.3333 9.58869 17.5059 9.25771 15.851 8.59575L15.1949 8.33331L13.5106 9.00704C11.8557 9.669 11.0282 9.99998 10 9.99998C8.97177 9.99998 8.14432 9.669 6.48941 9.00704L4.80511 8.33331Z" fill="#E0F2FE"/>
<path opacity="0.4" d="M4.80511 11.6667L4.14902 11.9291C2.49412 12.5911 1.66667 12.9221 1.66667 13.3334C1.66667 13.7446 2.49412 14.0756 4.14902 14.7376L6.48941 15.6737C8.14432 16.3357 8.97177 16.6667 10 16.6667C11.0282 16.6667 11.8557 16.3357 13.5106 15.6737L15.851 14.7376C17.5059 14.0756 18.3333 13.7446 18.3333 13.3334C18.3333 12.9221 17.5059 12.5911 15.851 11.9291L15.1949 11.6667L13.5106 12.3404C11.8557 13.0024 11.0282 13.3334 10 13.3334C8.97177 13.3334 8.14432 13.0024 6.48941 12.3404L4.80511 11.6667Z" fill="#E0F2FE"/>
</svg>
