<svg width="20" height="20" viewBox="0 0 20 20" fill="none" xmlns="http://www.w3.org/2000/svg">
<path opacity="0.5" d="M10 18.3334C6.07163 18.3334 4.10744 18.3334 2.88705 17.113C1.66667 15.8926 1.66667 13.9284 1.66667 10C1.66667 6.07165 1.66667 4.10746 2.88705 2.88708C4.10744 1.66669 6.07163 1.66669 10 1.66669C13.9284 1.66669 15.8926 1.66669 17.1129 2.88708C18.3333 4.10746 18.3333 6.07165 18.3333 10C18.3333 13.9284 18.3333 15.8926 17.1129 17.113C15.8926 18.3334 13.9284 18.3334 10 18.3334Z" fill="#E0F2FE"/>
<path d="M10 4.375C10.3452 4.375 10.625 4.65482 10.625 5V15C10.625 15.3452 10.3452 15.625 10 15.625C9.65482 15.625 9.375 15.3452 9.375 15V5C9.375 4.65482 9.65482 4.375 10 4.375Z" fill="#E0F2FE"/>
<path d="M5.83333 6.875C6.17851 6.875 6.45833 7.15482 6.45833 7.5V15C6.45833 15.3452 6.17851 15.625 5.83333 15.625C5.48816 15.625 5.20833 15.3452 5.20833 15V7.5C5.20833 7.15482 5.48816 6.875 5.83333 6.875Z" fill="#E0F2FE"/>
<path d="M14.1667 10.2083C14.5118 10.2083 14.7917 10.4882 14.7917 10.8333V15C14.7917 15.3452 14.5118 15.625 14.1667 15.625C13.8215 15.625 13.5417 15.3452 13.5417 15V10.8333C13.5417 10.4882 13.8215 10.2083 14.1667 10.2083Z" fill="#E0F2FE"/>
</svg>
