<svg width="20" height="20" viewBox="0 0 20 20" fill="none" xmlns="http://www.w3.org/2000/svg">
<path d="M14.3616 6.21995L13.0811 7.28704C12.2259 7.99971 11.6321 8.49291 11.1308 8.81532C10.6456 9.12741 10.3165 9.23217 10.0002 9.23217C9.68387 9.23217 9.35479 9.12741 8.86955 8.81532C8.36827 8.49291 7.77451 7.99971 6.91929 7.28704L4.94031 5.63788C4.64862 5.39481 4.2151 5.43422 3.97203 5.72591C3.72895 6.0176 3.76836 6.45111 4.06005 6.69418L6.07351 8.37206C6.886 9.04916 7.54454 9.59796 8.12576 9.97178C8.73121 10.3612 9.32086 10.6072 10.0002 10.6072C10.6795 10.6072 11.2691 10.3612 11.8746 9.97178C12.4558 9.59796 13.1144 9.04916 13.9269 8.37205L15.3154 7.21496C14.9395 6.94512 14.6156 6.60748 14.3616 6.21995Z" fill="#E0F2FE"/>
<path d="M15.3781 5.48933C15.6135 5.44711 15.8643 5.52906 16.0283 5.72591C16.1638 5.88845 16.2115 6.09503 16.1768 6.28816C15.8537 6.0862 15.58 5.81249 15.3781 5.48933Z" fill="#E0F2FE"/>
<path opacity="0.5" d="M14.1314 2.51749C13.4634 2.5 12.703 2.5 11.8333 2.5H8.16667C4.7097 2.5 2.98122 2.5 1.90728 3.59835C0.833334 4.6967 0.833334 6.46447 0.833334 10C0.833334 13.5355 0.833334 15.3033 1.90728 16.4017C2.98122 17.5 4.7097 17.5 8.16667 17.5H11.8333C15.2903 17.5 17.0188 17.5 18.0927 16.4017C19.1667 15.3033 19.1667 13.5355 19.1667 10C19.1667 9.11052 19.1667 8.33294 19.1496 7.64975C18.6518 7.89953 18.0919 8.03977 17.5 8.03977C15.4289 8.03977 13.75 6.32268 13.75 4.20455C13.75 3.5992 13.8871 3.0266 14.1314 2.51749Z" fill="#E0F2FE"/>
<path d="M20 4.16667C20 5.54738 18.8807 6.66667 17.5 6.66667C16.1193 6.66667 15 5.54738 15 4.16667C15 2.78596 16.1193 1.66667 17.5 1.66667C18.8807 1.66667 20 2.78596 20 4.16667Z" fill="#E0F2FE"/>
</svg>
