<svg width="20" height="20" viewBox="0 0 20 20" fill="none" xmlns="http://www.w3.org/2000/svg">
<path d="M11.8423 12.8018C12.0738 12.7951 12.337 12.7649 12.6056 12.697C12.6374 12.689 12.6701 12.6804 12.7037 12.6711C12.911 12.6137 13.1351 12.5292 13.3659 12.3876C13.4221 12.354 13.4773 12.3179 13.5313 12.2791L13.5293 12.2783C13.6935 12.1588 13.8598 12.0077 14.0249 11.8145C14.0926 11.7353 14.2088 11.5677 14.2749 11.4378C14.1223 11.2761 13.8902 11.143 13.6725 11.026L13.6492 11.0135C13.5484 10.9591 13.3659 10.8608 13.1955 10.7941C13.1774 10.787 13.1585 10.7801 13.1392 10.7729C12.992 10.7187 12.8201 10.6553 12.8027 10.4805C12.7894 10.3456 12.8577 10.2614 12.9391 10.161C12.9587 10.1369 12.979 10.1119 12.9991 10.085C13.2367 9.76759 13.4603 9.33473 13.4199 8.74861C13.3803 8.17331 13.0122 7.72661 12.3959 7.65763C12.3246 7.64967 12.2551 7.64622 12.1876 7.6472C12.1201 7.64622 12.0506 7.64967 11.9793 7.65763C11.3631 7.72661 10.995 8.17331 10.9553 8.74861C10.9149 9.33473 11.1385 9.76759 11.3761 10.085C11.3962 10.1119 11.4166 10.1369 11.4361 10.161C11.5176 10.2614 11.5859 10.3456 11.5725 10.4805C11.5551 10.6553 11.3832 10.7187 11.2361 10.7729C11.2168 10.7801 11.1978 10.7871 11.1797 10.7941C11.0093 10.8608 10.8268 10.9591 10.726 11.0135L10.7028 11.026C10.3797 11.1996 10.025 11.4085 9.94528 11.6942C9.8479 12.0437 9.79532 12.4824 9.80496 12.8018H10.3566C10.5104 12.8018 10.6687 12.8033 10.8299 12.8049C11.161 12.8082 11.5039 12.8115 11.8423 12.8018Z" fill="white"/>
<path fill-rule="evenodd" clip-rule="evenodd" d="M19.9996 10.7843L19.9991 11.1091L19.998 11.3584L19.9967 11.5684L19.9948 11.7534L19.9926 11.9206L19.99 12.0742L19.987 12.2172L19.9836 12.3514L19.9798 12.4782L19.9756 12.5987L19.9709 12.7137L19.9659 12.8239L19.9605 12.9299L19.9547 13.032L19.9484 13.1306L19.9418 13.2261L19.9347 13.3186L19.9273 13.4085L19.9195 13.4959L19.9112 13.581L19.9025 13.6639L19.8935 13.7449L19.884 13.8239L19.8741 13.9012L19.8638 13.9767L19.8531 14.0507L19.842 14.1231L19.8305 14.1941L19.8185 14.2637L19.8062 14.3319L19.7935 14.399L19.7803 14.4647L19.7667 14.5293L19.7527 14.5928L19.7383 14.6551L19.7235 14.7164L19.7082 14.7768L19.6925 14.8361L19.6765 14.8944L19.66 14.9518L19.6431 15.0083L19.6257 15.064L19.608 15.1188L19.5898 15.1727L19.5712 15.2259L19.5521 15.2782L19.5327 15.3298L19.5127 15.3806L19.4924 15.4306L19.4717 15.48L19.4505 15.5286L19.4289 15.5766L19.4068 15.6238L19.3843 15.6704L19.3613 15.7163L19.338 15.7615L19.3141 15.8062L19.2898 15.8502L19.2651 15.8936L19.24 15.9363L19.2143 15.9785L19.1882 16.0201L19.1617 16.0611L19.1347 16.1015L19.1073 16.1413L19.0793 16.1806L19.0509 16.2193L19.0221 16.2575L18.9927 16.2952L18.9629 16.3323L18.9327 16.3688L18.9019 16.4049L18.8706 16.4404L18.8389 16.4754L18.8067 16.5099L18.7739 16.5439L18.7407 16.5774L18.707 16.6104L18.6727 16.6429L18.638 16.6749L18.6027 16.7064L18.5669 16.7375L18.5306 16.7681L18.4937 16.7982L18.4564 16.8278L18.4184 16.857L18.3799 16.8857L18.3409 16.9139L18.3013 16.9417L18.2611 16.969L18.2204 16.9958L18.1791 17.0222L18.1371 17.0482L18.0946 17.0737L18.0515 17.0988L18.0078 17.1234L17.9635 17.1476L17.9184 17.1713L17.8728 17.1947L17.8265 17.2175L17.7796 17.24L17.732 17.262L17.6837 17.2836L17.6347 17.3048L17.5849 17.3255L17.5345 17.3458L17.4833 17.3657L17.4314 17.3852L17.3786 17.4042L17.3251 17.4229L17.2708 17.4411L17.2156 17.4589L17.1596 17.4763L17.1027 17.4933L17.0449 17.5098L16.9863 17.526L16.9266 17.5417L16.866 17.557L16.8044 17.572L16.7416 17.5865L16.6779 17.6006L16.6131 17.6143L16.547 17.6276L16.4798 17.6405L16.4113 17.653L16.3416 17.6651L16.2704 17.6768L16.1979 17.6881L16.1239 17.6989L16.0483 17.7094L15.9711 17.7195L15.8922 17.7292L15.8114 17.7385L15.7287 17.7474L15.644 17.7559L15.5571 17.764L15.4678 17.7717L15.376 17.779L15.2815 17.7859L15.184 17.7924L15.0833 17.7985L14.9791 17.8042L14.871 17.8096L14.7585 17.8145L14.6412 17.8191L14.5184 17.8232L14.3891 17.827L14.2524 17.8304L14.1069 17.8333L13.9506 17.8359L13.7807 17.8381L13.593 17.8399L13.3804 17.8413L13.1294 17.8423L12.8058 17.8429L7.25784 17.843L6.91553 17.8424L6.6562 17.8415L6.43867 17.8401L6.24761 17.8384L6.07522 17.8363L5.91694 17.8338L5.76984 17.8308L5.63184 17.8275L5.50149 17.8239L5.37769 17.8198L5.25953 17.8153L5.14631 17.8104L5.03757 17.8051L4.93275 17.7995L4.83153 17.7934L4.73357 17.787L4.63859 17.7801L4.54639 17.7729L4.45671 17.7652L4.36941 17.7572L4.28435 17.7488L4.20133 17.7399L4.12027 17.7307L4.04106 17.7211L3.96361 17.711L3.88776 17.7006L3.8135 17.6898L3.74074 17.6786L3.6694 17.667L3.59942 17.6549L3.53075 17.6425L3.46333 17.6297L3.39711 17.6164L3.33207 17.6028L3.26814 17.5888L3.20529 17.5743L3.14349 17.5594L3.0827 17.5442L3.0229 17.5285L2.96405 17.5124L2.90612 17.4959L2.8491 17.479L2.79295 17.4617L2.73766 17.4439L2.6832 17.4258L2.62956 17.4072L2.57671 17.3882L2.52464 17.3688L2.47333 17.349L2.42276 17.3288L2.37293 17.3081L2.32381 17.287L2.27539 17.2655L2.22766 17.2435L2.18061 17.2211L2.13423 17.1983L2.0885 17.1751L2.04341 17.1514L1.99896 17.1273L1.95513 17.1027L1.91192 17.0777L1.86931 17.0523L1.8273 17.0264L1.78589 17.0001L1.74505 16.9733L1.7048 16.946L1.66511 16.9183L1.62598 16.8902L1.58741 16.8615L1.54939 16.8325L1.51191 16.8029L1.47497 16.7729L1.43857 16.7424L1.40269 16.7114L1.36734 16.68L1.3325 16.6481L1.29818 16.6156L1.26436 16.5827L1.23105 16.5493L1.19824 16.5154L1.16593 16.481L1.13411 16.446L1.10278 16.4106L1.07193 16.3746L1.04157 16.3381L1.01169 16.3011L0.982278 16.2636L0.953345 16.2255L0.924878 16.1868L0.896886 16.1476L0.869353 16.1079L0.842282 16.0675L0.815671 16.0266L0.789522 15.9851L0.763824 15.9431L0.738576 15.9004L0.71378 15.8571L0.689435 15.8132L0.665533 15.7687L0.642075 15.7235L0.619063 15.6777L0.596486 15.6313L0.574353 15.5841L0.552655 15.5363L0.531396 15.4878L0.510565 15.4386L0.490169 15.3886L0.470204 15.3379L0.450671 15.2865L0.431561 15.2342L0.412882 15.1812L0.394624 15.1274L0.376796 15.0728L0.359389 15.0173L0.342401 14.9609L0.325838 14.9036L0.309694 14.8454L0.293968 14.7862L0.278658 14.7261L0.263767 14.665L0.249293 14.6028L0.235231 14.5395L0.221587 14.4751L0.208354 14.4095L0.195534 14.3427L0.183126 14.2746L0.171129 14.2053L0.159544 14.1345L0.148369 14.0623L0.137601 13.9886L0.127244 13.9133L0.117292 13.8363L0.107751 13.7576L0.0986137 13.677L0.0898863 13.5943L0.0815627 13.5096L0.0736463 13.4226L0.0661333 13.3331L0.0590247 13.241L0.0523227 13.146L0.0460247 13.0479L0.0401275 12.9464L0.0346375 12.8411L0.0295482 12.7315L0.0248629 12.6173L0.0205814 12.4977L0.0167009 12.372L0.0132243 12.2391L0.0101456 12.0977L0.0074738 11.9459L0.00519996 11.7811L0.00333001 11.5993L0.00186097 11.394L0.000792859 11.1525L0.000125661 10.8445L0 9.28087L0.000538545 8.93593L0.00147801 8.67817L0.00281839 8.46311L0.00455969 8.27472L0.0067049 8.10507L0.00925102 7.94946L0.012198 7.80495L0.015549 7.6695L0.0193009 7.54162L0.0234567 7.42017L0.0280133 7.30433L0.032974 7.19335L0.0383355 7.08676L0.0441039 6.98409L0.0502733 6.88495L0.0568463 6.78899L0.0638267 6.69597L0.0712078 6.6057L0.0789957 6.51789L0.0871906 6.43244L0.0957894 6.34915L0.104795 6.26789L0.114207 6.18856L0.12403 6.11103L0.134256 6.03522L0.144893 5.96101L0.155939 5.88835L0.167395 5.81714L0.179261 5.74733L0.191537 5.67886L0.204226 5.61167L0.217327 5.54571L0.230842 5.48094L0.244769 5.4173L0.259112 5.35476L0.273871 5.29327L0.289046 5.23282L0.304637 5.17336L0.32065 5.11485L0.337082 5.05729L0.353932 5.00063L0.371204 4.94485L0.388902 4.88993L0.40702 4.83585L0.425565 4.78258L0.444537 4.73011L0.463937 4.67842L0.483765 4.62749L0.504024 4.5773L0.52471 4.52784L0.545835 4.4791L0.567392 4.43106L0.589388 4.3837L0.611824 4.33702L0.634698 4.291L0.658012 4.24563L0.681773 4.20091L0.705976 4.15681L0.730631 4.11333L0.755733 4.07046L0.781286 4.0282L0.80729 3.98653L0.833757 3.94544L0.860678 3.90494L0.888063 3.865L0.915914 3.82563L0.944227 3.78681L0.973012 3.74854L1.00227 3.71082L1.032 3.67363L1.06221 3.63697L1.0929 3.60084L1.12407 3.56524L1.15574 3.53015L1.18789 3.49556L1.22055 3.46149L1.25369 3.42791L1.28735 3.39484L1.32151 3.36226L1.35618 3.33016L1.39137 3.29856L1.42708 3.26744L1.46332 3.23679L1.50009 3.20662L1.5374 3.17692L1.57524 3.14769L1.61364 3.11892L1.65258 3.09062L1.69209 3.06277L1.73217 3.03538L1.77282 3.00845L1.81405 2.98197L1.85587 2.95594L1.89828 2.93035L1.9413 2.90521L1.98493 2.88051L2.02918 2.85625L2.07406 2.83243L2.11959 2.80905L2.16577 2.78609L2.2126 2.76358L2.26011 2.74149L2.30831 2.71983L2.35721 2.6986L2.40681 2.67779L2.45715 2.65741L2.50822 2.63745L2.56004 2.61791L2.61264 2.5988L2.66603 2.58009L2.72023 2.56181L2.77525 2.54394L2.83112 2.52649L2.88786 2.50945L2.9455 2.49283L3.00405 2.47661L3.06355 2.4608L3.12402 2.44541L3.18549 2.43042L3.248 2.41584L3.31158 2.40167L3.37627 2.3879L3.44211 2.37453L3.50914 2.36157L3.5774 2.34902L3.64696 2.33686L3.71786 2.32511L3.79016 2.31376L3.86395 2.30281L3.93926 2.29226L4.0162 2.28211L4.09486 2.27236L4.17533 2.263L4.25769 2.25405L4.34208 2.24549L4.42867 2.23732L4.51757 2.22956L4.60894 2.22219L4.70302 2.21521L4.8 2.20863L4.90012 2.20245L5.00376 2.19666L5.11122 2.19126L5.22294 2.18626L5.33945 2.18165L5.46141 2.17743L5.58957 2.17361L5.72498 2.17018L5.86898 2.16715L6.02341 2.1645L6.1909 2.16225L6.37537 2.16039L6.58333 2.15893L6.82682 2.15785L7.13447 2.15717L12.6721 2.15698L13.0371 2.15748L13.3056 2.15836L13.5285 2.15964L13.7231 2.16131L13.8981 2.16338L14.0584 2.16583L14.2071 2.16868L14.3464 2.17192L14.4779 2.17556L14.6027 2.17959L14.7217 2.18401L14.8357 2.18882L14.9451 2.19403L15.0505 2.19963L15.1523 2.20563L15.2507 2.21202L15.3462 2.21881L15.4388 2.22599L15.5289 2.23356L15.6165 2.24154L15.702 2.24991L15.7853 2.25867L15.8667 2.26784L15.9462 2.2774L16.0239 2.28736L16.1 2.29772L16.1745 2.30848L16.2475 2.31964L16.3191 2.3312L16.3893 2.34316L16.4581 2.35553L16.5257 2.36829L16.5922 2.38146L16.6574 2.39504L16.7215 2.40902L16.7845 2.4234L16.8465 2.4382L16.9074 2.4534L16.9674 2.46901L17.0264 2.48503L17.0844 2.50146L17.1416 2.5183L17.1979 2.53555L17.2533 2.55322L17.3079 2.57131L17.3617 2.58981L17.4146 2.60873L17.4668 2.62806L17.5183 2.64782L17.5689 2.668L17.6189 2.6886L17.6681 2.70963L17.7167 2.73109L17.7645 2.75297L17.8116 2.77528L17.8582 2.79803L17.904 2.8212L17.9492 2.84482L17.9937 2.86886L18.0376 2.89335L18.081 2.91828L18.1236 2.94366L18.1658 2.96947L18.2073 2.99574L18.2482 3.02246L18.2885 3.04963L18.3283 3.07726L18.3675 3.10534L18.4062 3.13388L18.4443 3.16289L18.4819 3.19237L18.5189 3.22231L18.5554 3.25273L18.5913 3.28363L18.6268 3.315L18.6617 3.34686L18.6961 3.37921L18.73 3.41205L18.7634 3.44538L18.7963 3.47922L18.8287 3.51356L18.8606 3.5484L18.892 3.58376L18.9229 3.61964L18.9533 3.65605L18.9833 3.69298L19.0128 3.73045L19.0418 3.76845L19.0704 3.80701L19.0984 3.84612L19.126 3.88578L19.1531 3.92602L19.1798 3.96683L19.2061 4.00822L19.2318 4.0502L19.2571 4.09277L19.282 4.13596L19.3064 4.17976L19.3304 4.22418L19.3539 4.26924L19.377 4.31495L19.3996 4.36131L19.4219 4.40835L19.4436 4.45606L19.465 4.50447L19.4859 4.55358L19.5063 4.60342L19.5264 4.65399L19.546 4.70531L19.5651 4.75741L19.5839 4.81029L19.6022 4.86398L19.6201 4.9185L19.6376 4.97387L19.6546 5.0301L19.6713 5.08724L19.6875 5.14529L19.7033 5.20429L19.7187 5.26426L19.7336 5.32525L19.7482 5.38728L19.7623 5.45039L19.776 5.51462L19.7893 5.58001L19.8022 5.6466L19.8146 5.71445L19.8267 5.78362L19.8384 5.85414L19.8496 5.92611L19.8604 5.99957L19.8709 6.07461L19.8809 6.15131L19.8905 6.22978L19.8997 6.31009L19.9085 6.3924L19.9169 6.4768L19.9248 6.56346L19.9324 6.65252L19.9396 6.74421L19.9464 6.83872L19.9527 6.93629L19.9587 7.03727L19.9642 7.14193L19.9694 7.25072L19.9742 7.36417L19.9785 7.48284L19.9824 7.60754L19.986 7.73923L19.9891 7.87919L19.9918 8.02915L19.9942 8.19166L19.9961 8.37036L19.9976 8.57138L19.9988 8.80582L19.9995 9.09942L19.9996 10.7843ZM8.23514 14.3137H11.3724C14.3445 14.3137 16.0783 12.465 16.0783 9.97538C16.0783 7.46107 14.3681 5.68629 11.4196 5.68629H8.23514V14.3137ZM6.66651 14.3137H4.31357V5.68629H6.66651V14.3137Z" fill="white"/>
</svg>
