<svg width="20" height="20" viewBox="0 0 20 20" fill="none" xmlns="http://www.w3.org/2000/svg">
<path fill-rule="evenodd" clip-rule="evenodd" d="M13.5375 6.46678L17.8472 2.15712L17.845 2.15495C16.8556 1.16556 14.9813 1.79034 11.2327 3.03989L6.94156 4.47026C3.91603 5.47877 2.40327 5.98302 1.97338 6.72248C1.56443 7.42593 1.56443 8.29473 1.97338 8.99818C2.40326 9.73764 3.91603 10.2419 6.94155 11.2504C7.31651 11.3754 7.73834 11.2861 8.01911 11.008L12.6071 6.46245C12.8653 6.20673 13.2818 6.20867 13.5375 6.46678Z" fill="#E0F2FE"/>
<path opacity="0.5" d="M15.5297 13.0579L16.9601 8.76679C18.2087 5.02087 18.8335 3.14654 17.8472 2.15659L13.5375 6.46625C13.7932 6.72437 13.7913 7.14092 13.5332 7.39664L9.01923 11.8688C8.70976 12.1754 8.6118 12.6446 8.74956 13.0579C9.75806 16.0834 10.2623 17.5962 11.0018 18.0261C11.7052 18.435 12.574 18.435 13.2775 18.0261C14.0169 17.5962 14.5212 16.0834 15.5297 13.0579Z" fill="#E0F2FE"/>
</svg>
