<svg width="20" height="20" viewBox="0 0 20 20" fill="none" xmlns="http://www.w3.org/2000/svg">
<g clip-path="url(#clip0_2009_1516)">
<path opacity="0.5" d="M11.6196 18.9384C12.3674 18.1906 12.3674 16.9783 11.6196 16.2305C10.8719 15.4827 9.65948 15.4827 8.91171 16.2305C8.16393 16.9783 8.16393 18.1906 8.91171 18.9384C9.65948 19.6862 10.8719 19.6862 11.6196 18.9384Z" fill="white"/>
<path d="M15.0792 9.2966C14.2976 10.3516 13.5122 10.8988 12.926 11.3286C12.2616 11.7976 11.949 12.032 11.8318 13.1692C11.7926 13.5992 11.441 13.9118 11.011 13.9118H9.56521C9.33081 13.9118 9.09621 13.7946 8.94001 13.6382C8.78361 13.4818 8.70541 13.2474 8.70541 13.013C8.90081 10.508 9.87781 9.6482 11.0894 8.7494C11.5974 8.3978 12.0662 8.0852 12.5352 7.4208C13.0822 6.7956 13.1212 5.8576 12.7306 5.0722C12.457 4.525 11.7536 3.6262 10.0732 3.6262C7.88481 3.6262 7.22041 4.955 7.02521 6.0922C6.94701 6.483 6.59521 6.7956 6.20061 6.7956H4.71561C4.48101 6.7956 4.24661 6.6784 4.09021 6.522C3.93401 6.3266 3.85581 6.092 3.89481 5.8576C4.28561 3.2746 6.08321 0.5 10.0732 0.5C12.496 0.5 14.532 1.6724 15.5092 3.6262C16.447 5.506 16.2906 7.6942 15.0792 9.2966Z" fill="white"/>
</g>
<defs>
<clipPath id="clip0_2009_1516">
<rect width="20" height="20" fill="white"/>
</clipPath>
</defs>
</svg>
