<svg width="20" height="20" viewBox="0 0 20 20" fill="none" xmlns="http://www.w3.org/2000/svg">
<g clip-path="url(#clip0_2009_573)">
<path fill-rule="evenodd" clip-rule="evenodd" d="M18.1224 7.07214C17.841 6.79083 17.3849 6.79083 17.1036 7.07214L15.8064 8.36939L16.8251 9.3881L18.1224 8.09083L18.1224 8.09081C18.4036 7.80956 18.4037 7.35346 18.1224 7.07214ZM17.4095 11.1607C17.4111 11.1591 17.4128 11.1575 17.4144 11.1559C17.416 11.1543 17.4176 11.1527 17.4192 11.151L19.3008 9.26936C20.2331 8.3372 20.233 6.8258 19.3009 5.89363C18.3687 4.96144 16.8573 4.96144 15.9251 5.89363L14.039 7.77974C14.0389 7.77987 14.0388 7.78 14.0386 7.78013C14.0385 7.78027 14.0384 7.7804 14.0382 7.78054L10.0993 11.7195C8.94819 12.8706 8.30155 14.4318 8.30155 16.0597C8.30155 16.5199 8.67464 16.893 9.13488 16.893C9.94091 16.893 10.7391 16.7343 11.4837 16.4258C12.2284 16.1173 12.905 15.6652 13.475 15.0953C13.475 15.0953 13.475 15.0953 13.475 15.0953L17.4095 11.1607ZM15.6466 10.5666L14.6279 9.54791L11.2778 12.898C10.6624 13.5135 10.2449 14.2899 10.0663 15.1283C10.3324 15.0716 10.5934 14.9906 10.8459 14.886C11.3884 14.6613 11.8813 14.332 12.2965 13.9168L12.2965 13.9168L15.6466 10.5666Z" fill="#E0F2FE"/>
<path opacity="0.5" fill-rule="evenodd" clip-rule="evenodd" d="M2.38699 1.66667C1.98919 1.66667 1.66667 1.98918 1.66667 2.38701V17.613C1.66667 18.0108 1.98919 18.3333 2.38699 18.3333H13.2626C13.6604 18.3333 13.9829 18.0108 13.9829 17.613V16.9579C13.9829 16.4977 14.356 16.1246 14.8163 16.1246C15.2765 16.1246 15.6496 16.4977 15.6496 16.9579V17.613C15.6496 18.9313 14.5809 20 13.2626 20H2.38699C1.0687 20 0 18.9313 0 17.613V2.38701C0 1.06872 1.0687 4.03232e-10 2.38699 4.03232e-10H11.0654C11.0654 4.03232e-10 11.0654 4.03232e-10 11.0654 4.03232e-10C11.3788 -5.76138e-06 11.6893 0.0617361 11.9789 0.1817C12.2685 0.30166 12.5316 0.477488 12.7532 0.699145M12.7532 0.699145L14.9504 2.8963C14.9504 2.89628 14.9504 2.89631 14.9504 2.8963C15.2387 3.18456 15.4484 3.54194 15.5594 3.93423C15.6847 4.37709 15.4273 4.83766 14.9844 4.96296C14.5416 5.08826 14.081 4.83083 13.9557 4.38798C13.9222 4.26965 13.859 4.16187 13.772 4.07492L11.5747 1.87766C11.5079 1.81078 11.4284 1.75769 11.341 1.72149C11.2537 1.68529 11.16 1.66666 11.0654 1.66667H2.38699" fill="#E0F2FE"/>
<path fill-rule="evenodd" clip-rule="evenodd" d="M3.10801 5.4948C3.10801 5.03456 3.48111 4.66147 3.94134 4.66147H8.60233C9.06256 4.66147 9.43566 5.03456 9.43566 5.4948C9.43566 5.95504 9.06256 6.32814 8.60233 6.32814H3.94134C3.48111 6.32814 3.10801 5.95504 3.10801 5.4948ZM3.10801 8.60215C3.10801 8.14191 3.48111 7.76881 3.94134 7.76881H8.60233C9.06256 7.76881 9.43566 8.14191 9.43566 8.60215C9.43566 9.06238 9.06256 9.43548 8.60233 9.43548H3.94134C3.48111 9.43548 3.10801 9.06238 3.10801 8.60215ZM5.495 15.3394C5.0972 15.3394 4.77468 15.662 4.77468 16.0598C4.77468 16.52 4.40158 16.8931 3.94134 16.8931C3.48111 16.8931 3.10801 16.52 3.10801 16.0598C3.10801 14.7415 4.17671 13.6728 5.495 13.6728C6.52018 13.6728 7.39441 14.3191 7.7325 15.2264H9.13546C9.5957 15.2264 9.9688 15.5995 9.9688 16.0598C9.9688 16.52 9.5957 16.8931 9.13546 16.8931H7.04866C6.58843 16.8931 6.21533 16.52 6.21533 16.0598C6.21533 15.662 5.89281 15.3394 5.495 15.3394Z" fill="#E0F2FE"/>
</g>
<defs>
<clipPath id="clip0_2009_573">
<rect width="20" height="20" fill="white"/>
</clipPath>
</defs>
</svg>
