<svg width="20" height="20" viewBox="0 0 20 20" fill="none" xmlns="http://www.w3.org/2000/svg">
<path opacity="0.5" d="M18.125 12.8125H5.49609C5.66797 12.4672 5.84062 12.1141 6.01094 11.7555C6.02969 11.7172 6.04766 11.6774 6.06562 11.6414C7.125 11.5164 8.31406 10.7617 9.62187 9.3836C10.0383 10.3258 10.7211 11.3266 11.782 11.5273C12.1922 11.6055 12.8359 11.5891 13.5711 11.0734C13.8292 10.8892 14.067 10.6782 14.2805 10.4438C14.9312 11.0391 16.0836 11.5625 18.125 11.5625C18.3736 11.5625 18.6121 11.4637 18.7879 11.2879C18.9637 11.1121 19.0625 10.8736 19.0625 10.625C19.0625 10.3764 18.9637 10.1379 18.7879 9.96209C18.6121 9.78628 18.3736 9.68751 18.125 9.68751C15.5734 9.68751 15.3273 8.78048 15.3125 8.70313C15.3016 8.49085 15.2188 8.28858 15.0778 8.12951C14.9368 7.97045 14.7459 7.86402 14.5365 7.82769C14.327 7.79136 14.1115 7.82729 13.9251 7.92957C13.7388 8.03186 13.5927 8.19443 13.5109 8.39063C12.7789 9.47891 12.2922 9.71876 12.1312 9.68751C11.7477 9.61485 11.1586 8.46094 10.9187 7.31329C10.8806 7.12778 10.7872 6.95817 10.6508 6.8268C10.5143 6.69543 10.3413 6.60846 10.1545 6.57734C9.9677 6.54621 9.77584 6.5724 9.6042 6.65245C9.43256 6.7325 9.28919 6.86266 9.19297 7.02579C8.41172 7.99298 7.74297 8.66094 7.18672 9.0961C8.85156 4.94063 8.52656 3.43047 8.08281 2.64532C7.69219 1.95235 6.98906 1.56876 6.10156 1.56485H6.07656C4.67031 1.57501 3.54297 2.86641 3.05078 5.02344C2.78125 6.20547 2.73828 7.51407 2.93672 8.61251C3.14297 9.76016 3.5875 10.618 4.23437 11.1297C3.95547 11.7063 3.67187 12.2727 3.39453 12.8125H1.875C1.62636 12.8125 1.3879 12.9113 1.21209 13.0871C1.03627 13.2629 0.937499 13.5014 0.937499 13.75C0.937499 13.9986 1.03627 14.2371 1.21209 14.4129C1.3879 14.5887 1.62636 14.6875 1.875 14.6875H2.39687C1.64062 16.068 1.08125 17 1.06875 17.0164C1.00528 17.1219 0.963216 17.2389 0.944964 17.3607C0.926711 17.4825 0.932626 17.6066 0.962371 17.7261C0.992116 17.8456 1.04511 17.9581 1.11832 18.0571C1.19153 18.1561 1.28353 18.2397 1.38906 18.3031C1.53549 18.392 1.70371 18.4385 1.875 18.4375C2.03677 18.4376 2.19583 18.3959 2.3367 18.3164C2.47757 18.2368 2.59546 18.1222 2.67891 17.9836C2.72734 17.9016 3.53281 16.5625 4.53125 14.6875H18.125C18.3736 14.6875 18.6121 14.5887 18.7879 14.4129C18.9637 14.2371 19.0625 13.9986 19.0625 13.75C19.0625 13.5014 18.9637 13.2629 18.7879 13.0871C18.6121 12.9113 18.3736 12.8125 18.125 12.8125ZM15.3125 8.75001V8.70782C15.3137 8.72186 15.3137 8.73597 15.3125 8.75001ZM4.87812 5.43829C5.13828 4.29688 5.65937 3.43751 6.09375 3.43751C6.38047 3.43751 6.42578 3.51563 6.45312 3.56563C6.56484 3.76407 6.96484 4.90079 5.09219 9.25313C4.94161 8.94611 4.83685 8.61867 4.78125 8.28126C4.62972 7.33623 4.66261 6.3708 4.87812 5.43829Z" fill="#E0F2FE"/>
<path d="M3.39453 12.8125H18.125C18.3736 12.8125 18.6121 12.9113 18.7879 13.0871C18.9637 13.2629 19.0625 13.5014 19.0625 13.75C19.0625 13.9986 18.9637 14.2371 18.7879 14.4129C18.6121 14.5887 18.3736 14.6875 18.125 14.6875H2.39687H1.875C1.62636 14.6875 1.3879 14.5887 1.21209 14.4129C1.03627 14.2371 0.9375 13.9986 0.9375 13.75C0.9375 13.5014 1.03627 13.2629 1.21209 13.0871C1.3879 12.9113 1.62636 12.8125 1.875 12.8125H3.39453Z" fill="#E0F2FE"/>
</svg>
