<svg width="20" height="20" viewBox="0 0 20 20" fill="none" xmlns="http://www.w3.org/2000/svg">
<path d="M7.19528 4.72884H4.41782L7.19528 1.95139V4.72884Z" fill="#E0F2FE"/>
<path d="M12.9372 14.417C12.6829 14.6331 12.3001 14.6019 12.084 14.3476L11.3202 13.4488C10.9835 13.0612 10.6156 13.382 10.6156 13.382C10.6156 13.382 10.2445 13.6777 10.5767 14.0817L10.5784 14.0839L11.204 14.8203C11.4065 15.0644 11.3681 15.4562 11.1223 15.6566C10.8678 15.8727 10.4849 15.8418 10.2684 15.5869C10.1957 15.4961 9.73802 14.963 9.65221 14.8636C9.49182 14.6707 9.18318 14.6364 8.9863 14.7932C8.97917 14.7987 8.58182 15.0964 8.90999 15.4981L9.44257 16.1234C9.62259 16.3764 9.58255 16.7309 9.34165 16.9356C9.08741 17.1518 8.70458 17.1205 8.4868 16.8647L7.9858 16.28C7.82505 16.0865 7.51557 16.0525 7.31862 16.2103C7.09898 16.37 7.06373 16.7099 7.24228 16.9135L7.6007 17.3371C7.81672 17.5808 7.78384 17.9842 7.53168 18.19C7.29655 18.3986 6.90711 18.3763 6.69832 18.1421L3.68159 14.5732C3.22506 14.033 2.88537 13.699 2.18781 13.6354C1.90906 13.6393 1.66514 13.4282 1.66719 13.1429V9.15438C1.66719 8.88471 1.88581 8.66608 2.15549 8.66608H8.03105L7.01799 9.56227C6.51172 9.97638 6.46631 10.7978 6.92261 11.2658C7.36208 11.7342 7.98255 12.0031 8.62515 12.0031C9.18116 12.0031 9.72025 11.8036 10.1421 11.4426L10.7773 10.9015L13.0065 13.5637C13.2227 13.818 13.1914 14.2008 12.9372 14.417Z" fill="#E0F2FE"/>
<path opacity="0.5" fill-rule="evenodd" clip-rule="evenodd" d="M15.3808 1.66656H8.17287V5.21814C8.17287 5.48768 7.95411 5.70644 7.68457 5.70644H4.13299V7.69025H9.13515C9.13633 7.68923 9.14931 7.67772 9.1679 7.66124C9.22187 7.61338 9.32316 7.52356 9.32038 7.52683C9.76734 7.14921 10.3393 6.94152 10.9308 6.94152C11.2299 6.9282 11.6734 7.0474 12.0397 7.14584C12.1604 7.17828 12.2727 7.20847 12.3687 7.23092C13.231 7.45257 14.1178 7.56479 15.0081 7.56492H15.8692V2.15487C15.8692 1.88532 15.6504 1.66656 15.3808 1.66656ZM14.2409 3.84764H9.8C9.53046 3.84764 9.3117 3.62888 9.3117 3.35934C9.3117 3.0898 9.53046 2.87104 9.8 2.87104H14.2409C14.5105 2.87104 14.7292 3.0898 14.7292 3.35934C14.7292 3.62888 14.5105 3.84764 14.2409 3.84764ZM14.2409 5.80085H9.8C9.53046 5.80085 9.3117 5.58209 9.3117 5.31255C9.3117 5.043 9.53046 4.82425 9.8 4.82425H14.2409C14.5105 4.82425 14.7292 5.043 14.7292 5.31255C14.7292 5.58209 14.5105 5.80085 14.2409 5.80085Z" fill="#E0F2FE"/>
<path d="M18.3346 9.02914V13.6286C18.3346 13.8983 18.116 14.1169 17.8463 14.1169H16.705C16.5598 14.1169 16.4218 14.1817 16.329 14.2937C16.3261 14.2973 16.0149 14.6583 15.3208 14.9731C14.8426 15.1902 14.1216 15.4073 13.1365 15.423C14.1087 15.0516 14.442 13.7585 13.7775 12.9629L11.8819 10.6998H12.8038C13.0817 10.6998 13.305 10.4679 13.2915 10.1875C13.279 9.92501 13.0528 9.72318 12.79 9.72318H10.8334C10.7185 9.72406 10.6055 9.76469 10.5176 9.83972L9.50811 10.6998C9.26216 10.9104 8.94908 11.0263 8.62526 11.0266C8.24601 11.0266 7.89443 10.8743 7.63531 10.5979C7.54973 10.478 7.55832 10.4013 7.66135 10.2971L9.95018 8.27228C10.3201 7.95989 10.8368 7.84241 11.3054 7.9653L12.1254 8.17624C13.0672 8.41819 14.0356 8.54069 15.008 8.54084H17.8463C18.116 8.54084 18.3346 8.75947 18.3346 9.02914Z" fill="#E0F2FE"/>
</svg>
