<svg width="20" height="20" viewBox="0 0 20 20" fill="none" xmlns="http://www.w3.org/2000/svg">
<path opacity="0.5" d="M11.6666 3.33333H8.33329C5.1906 3.33333 3.61925 3.33333 2.64294 4.30964C1.66663 5.28595 1.66663 6.8573 1.66663 9.99999C1.66663 13.1427 1.66663 14.714 2.64294 15.6904C3.61925 16.6667 5.1906 16.6667 8.33329 16.6667H11.6666C14.8093 16.6667 16.3807 16.6667 17.357 15.6904C18.3333 14.714 18.3333 13.1427 18.3333 9.99999C18.3333 6.8573 18.3333 5.28595 17.357 4.30964C16.3807 3.33333 14.8093 3.33333 11.6666 3.33333Z" fill="white"/>
<path d="M11.0416 7.49999C11.0416 7.15482 11.3214 6.87499 11.6666 6.87499H15.8333C16.1785 6.87499 16.4583 7.15482 16.4583 7.49999C16.4583 7.84517 16.1785 8.12499 15.8333 8.12499H11.6666C11.3214 8.12499 11.0416 7.84517 11.0416 7.49999Z" fill="white"/>
<path d="M11.875 10C11.875 9.65482 12.1548 9.37499 12.5 9.37499H15.8333C16.1785 9.37499 16.4583 9.65482 16.4583 10C16.4583 10.3452 16.1785 10.625 15.8333 10.625H12.5C12.1548 10.625 11.875 10.3452 11.875 10Z" fill="white"/>
<path d="M12.7083 12.5C12.7083 12.1548 12.9881 11.875 13.3333 11.875H15.8333C16.1785 11.875 16.4583 12.1548 16.4583 12.5C16.4583 12.8452 16.1785 13.125 15.8333 13.125H13.3333C12.9881 13.125 12.7083 12.8452 12.7083 12.5Z" fill="white"/>
<path d="M7.49996 9.16666C8.42043 9.16666 9.16663 8.42047 9.16663 7.49999C9.16663 6.57952 8.42043 5.83333 7.49996 5.83333C6.57948 5.83333 5.83329 6.57952 5.83329 7.49999C5.83329 8.42047 6.57948 9.16666 7.49996 9.16666Z" fill="white"/>
<path d="M7.49996 14.1667C10.8333 14.1667 10.8333 13.4205 10.8333 12.5C10.8333 11.5795 9.34091 10.8333 7.49996 10.8333C5.65901 10.8333 4.16663 11.5795 4.16663 12.5C4.16663 13.4205 4.16663 14.1667 7.49996 14.1667Z" fill="white"/>
</svg>
