<svg width="24" height="24" viewBox="0 0 24 24" fill="none" xmlns="http://www.w3.org/2000/svg">
<g clip-path="url(#clip0_2014_1493)">
<path d="M0.566869 8.34789C0.199275 9.49952 0.000197274 10.7264 0.000244149 11.9999C0.000197274 13.2735 0.199322 14.5005 0.566916 15.6521L12.0002 16.1739L23.4336 15.6522C23.8011 14.5005 24.0003 13.2735 24.0003 12C24.0003 10.7264 23.8012 9.49952 23.4336 8.34785L12.0002 7.82613L0.566869 8.34789Z" fill="#F9FAFB"/>
<path d="M23.4332 8.34784L11.9999 7.82613L0.5665 8.34784C0.457563 8.68928 0.363766 9.03742 0.285156 9.39133H23.7144C23.6359 9.03738 23.5421 8.68919 23.4332 8.34784Z" fill="#D92D20"/>
<path d="M0.285034 14.609C0.36355 14.9629 0.457347 15.311 0.566284 15.6525L0.567409 15.6525L11.9996 16.1742L23.4329 15.6525C23.5418 15.3111 23.6356 14.9629 23.7142 14.609H0.285034Z" fill="#D92D20"/>
<path d="M12.0004 24.0007C17.3543 24.0007 21.8885 20.4943 23.4338 15.6529H0.567139C2.11237 20.4943 6.64669 24.0007 12.0004 24.0007Z" fill="#027A48"/>
<path d="M12.0001 -0.000819206C6.64632 -0.000772331 2.1121 3.50562 0.566772 8.34701L23.4334 8.34706C21.8882 3.50557 17.354 -0.000866081 12.0001 -0.000819206Z" fill="#2E90FA"/>
<path d="M5.48351 4.95627C5.48351 3.83235 6.2734 2.89345 7.32823 2.6631C7.16614 2.62766 6.9979 2.60849 6.82512 2.60849C5.52847 2.60849 4.47729 3.65962 4.47729 4.95632C4.47729 6.25303 5.52837 7.30415 6.82512 7.30415C6.9979 7.30415 7.16609 7.28493 7.32823 7.24954C6.27345 7.0191 5.48351 6.0802 5.48351 4.95627Z" fill="#F9FAFB"/>
<path d="M8.71543 6.02245L8.87434 6.51159H9.38865L8.97259 6.81393L9.13149 7.30308L8.71543 7.00078L8.29927 7.30308L8.45823 6.81393L8.04211 6.51159H8.55643L8.71543 6.02245Z" fill="#F9FAFB"/>
<path d="M10.3577 6.02245L10.5166 6.51159H11.0309L10.6148 6.81393L10.7738 7.30308L10.3577 7.00078L9.94156 7.30308L10.1005 6.81393L9.68445 6.51159H10.1987L10.3577 6.02245Z" fill="#F9FAFB"/>
<path d="M11.9988 6.02245L12.1577 6.51159H12.672L12.2559 6.81393L12.4148 7.30308L11.9988 7.00078L11.5826 7.30308L11.7416 6.81393L11.3254 6.51159H11.8398L11.9988 6.02245Z" fill="#F9FAFB"/>
<path d="M13.641 6.02245L13.7999 6.51159H14.3142L13.8981 6.81393L14.0571 7.30308L13.641 7.00078L13.2248 7.30308L13.3838 6.81393L12.9677 6.51159H13.482L13.641 6.02245Z" fill="#F9FAFB"/>
<path d="M15.2822 6.02245L15.4412 6.51159H15.9555L15.5394 6.81393L15.6984 7.30308L15.2822 7.00078L14.8661 7.30308L15.0251 6.81393L14.609 6.51159H15.1233L15.2822 6.02245Z" fill="#F9FAFB"/>
<path d="M10.3577 4.31516L10.5166 4.80426H11.0309L10.6148 5.10665L10.7738 5.59574L10.3577 5.29344L9.94156 5.59574L10.1005 5.10665L9.68445 4.80426H10.1987L10.3577 4.31516Z" fill="#F9FAFB"/>
<path d="M11.9988 4.31516L12.1577 4.80426H12.672L12.2559 5.10665L12.4148 5.59574L11.9988 5.29344L11.5826 5.59574L11.7416 5.10665L11.3254 4.80426H11.8398L11.9988 4.31516Z" fill="#F9FAFB"/>
<path d="M13.641 4.31516L13.7999 4.80426H14.3142L13.8981 5.10665L14.0571 5.59574L13.641 5.29344L13.2248 5.59574L13.3838 5.10665L12.9677 4.80426H13.482L13.641 4.31516Z" fill="#F9FAFB"/>
<path d="M15.2822 4.31516L15.4412 4.80426H15.9555L15.5394 5.10665L15.6984 5.59574L15.2822 5.29344L14.8661 5.59574L15.0251 5.10665L14.609 4.80426H15.1233L15.2822 4.31516Z" fill="#F9FAFB"/>
<path d="M11.9988 2.60807L12.1577 3.09726H12.672L12.2559 3.39956L12.4148 3.88875L11.9988 3.58645L11.5826 3.88875L11.7416 3.39956L11.3254 3.09726H11.8398L11.9988 2.60807Z" fill="#F9FAFB"/>
<path d="M13.641 2.60807L13.7999 3.09726H14.3142L13.8981 3.39956L14.0571 3.88875L13.641 3.58645L13.2248 3.88875L13.3838 3.39956L12.9677 3.09726H13.482L13.641 2.60807Z" fill="#F9FAFB"/>
<path d="M15.2822 2.60807L15.4412 3.09726H15.9555L15.5394 3.39956L15.6984 3.88875L15.2822 3.58645L14.8661 3.88875L15.0251 3.39956L14.609 3.09726H15.1233L15.2822 2.60807Z" fill="#F9FAFB"/>
</g>
<defs>
<clipPath id="clip0_2014_1493">
<rect width="24" height="24" rx="12" fill="white"/>
</clipPath>
</defs>
</svg>
